<svg version="1.1" id="Слой_1" xmlns="http://www.w3.org/2000/svg" x="0" y="0" width="24" height="24" viewBox="0 0 24 24" xml:space="preserve"><linearGradient id="SVGID_1_" gradientUnits="userSpaceOnUse" x1="12" y1="11.948" x2="12" y2="-12.109" gradientTransform="matrix(1 0 0 -1 0 12)"><stop offset="0" stop-color="#72bf44"/><stop offset="1" stop-color="#03aa4b"/></linearGradient><path d="M20.2 3.5C17.8 1.1 14.9 0 11.8 0 5.2 0 0 5.3 0 11.9c0 2.1.5 4.2 1.6 6L0 24l6.4-1.6c1.7 1 3.7 1.4 5.7 1.4 6.5 0 11.8-5.3 11.9-11.9-.3-3-1.6-6.1-3.8-8.4z" fill="url(#SVGID_1_)"/><path d="M8.9 6.9c-.2-.3-.5-.5-.8-.5h-.5c-.2 0-.4.2-.8.5-.3.2-1 1-1 2.4s1 2.9 1.3 3.1c.2.2 2.1 3.4 5.1 4.5 2.5 1 3 .8 3.5.8s1.7-.8 1.9-1.4c.2-.8.2-1.3.2-1.4l-.5-.5c-.3-.2-1.7-.8-2.1-1-.3 0-.6 0-.6.2-.3.3-.8 1-1 1.1-.2.2-.3.3-.6.2-.3-.2-1.3-.5-2.4-1.4-1-.8-1.4-1.8-1.6-2.1s0-.5.2-.6c.2 0 .3-.2.5-.5s0-.3.2-.5 0-.5 0-.5c-.2-.3-.8-1.7-1-2.4z" fill="#fff" id="shape_1"/></svg>