<svg version="1.1" id="Слой_1" xmlns="http://www.w3.org/2000/svg" x="0" y="0" width="24" height="24" viewBox="0 0 24 24" xml:space="preserve"><linearGradient id="SVGID_1_" gradientUnits="userSpaceOnUse" x1="12" y1="20" x2="12" y2="-3.913" gradientTransform="matrix(1 0 0 -1 0 20)"><stop offset="0" stop-color="#2ebfe8"/><stop offset="1" stop-color="#13a9dc"/></linearGradient><circle cx="12" cy="12" r="12" fill="url(#SVGID_1_)"/><path d="M17.9 6.7l-2.2 10.9s-.3.8-1.1.5l-5-3.8-1.8-.8-3-1.1s-.5-.2-.5-.5.5-.5.5-.5l12-4.6c0-.1 1.1-.7 1.1-.1z" fill="#fff"/><path d="M9.1 17.6l-.2-.6c-.2-.5-1-3.5-1-3.5l7.4-4.6s.5-.2.5 0c0 0 .2 0-.2.2-.3.3-5.9 5.3-5.9 5.3" fill="#c7dfeb"/><path d="M11.5 15.7l-2.1 1.9s-.2.2-.3 0l.6-3.3" fill="#a8c9de"/></svg>