<svg version="1.1" id="Layer_1" xmlns="http://www.w3.org/2000/svg" x="0" y="0" width="106" height="25" viewBox="0 0 106 25" xml:space="preserve"><path d="M94 7v4h4v14h4V11h4V7zM57 18.8c0 2.2-3.9 2.2-3.9 2.2H52V7h-4v18h5.1s7.9 0 7.9-5.5V7h-4v11.8zM83 7c-.1 0-8-.2-8 5.5v6.9c0 5.8 7.9 5.5 8 5.5.1 0 8 .2 8-5.5v-6.9C91 6.8 83.1 7 83 7zm4 11.8c0 2.2-3.9 2.2-4 2.2-.1 0-4 0-4-2.2v-5.6c0-2.2 3.9-2.2 4-2.2.1 0 4 0 4 2.2v5.6zM35 7s-8-.2-8 5.5V25h4v-4h8v4h4V12.5C43 6.8 35 7 35 7zm4 10h-8v-3.8c0-2.2 4-2.2 4-2.2s4 0 4 2.2V17zm-21 4h-5V7H9v14H8s-4 0-4-2.2V7H0v12.5C0 25 8 25 8 25h14V7h-4v14zM66 7h4v18h-4z" fill="#010101"/><path fill="#95102c" d="M66.9 0h4l-.8 4.1H66z"/></svg>