<svg version="1.1" id="Layer_1" xmlns="http://www.w3.org/2000/svg" x="0" y="0" width="1252.1" height="1040" viewBox="0 0 1252.1 1040" xml:space="preserve"><style>.st0{fill:#ddd}.st1{fill:#bcbec0}.st4{fill:none;stroke:#008be3;stroke-width:4;stroke-linecap:round}.st4,.st6,.st9{stroke-miterlimit:10}.st6{fill:none;stroke:#95102c;stroke-width:4;stroke-linecap:round}.st9{stroke:#d5d5d5;stroke-width:3}.st11,.st14,.st9{fill:none}.st14{stroke:#000;stroke-linecap:round;stroke-miterlimit:10}</style><path class="st0" d="M571 493h68v102h-68z"/><path class="st1" d="M786 309c1.1 0 2 .9 2 2v118c0 1.1-.9 2-2 2h-16c-1.1 0-2-.9-2-2V311c0-1.1.9-2 2-2h16m0-10h-16c-6.6 0-12 5.4-12 12v118c0 6.6 5.4 12 12 12h16c6.6 0 12-5.4 12-12V311c0-6.6-5.4-12-12-12z"/><path class="st0" d="M521 831h168v102H521zm7-831h10v228h-10z"/><path class="st1" d="M528 174h10v54h-10z"/><path class="st0" d="M571 364h262v15H571z"/><path fill="#6d6d6d" d="M561 174h10v450h-10z"/><path d="M525 216h58v5h-58zm0-36h58v5h-58z" fill="#a3a3a3"/><path class="st4" d="M533 232v409"/><path fill="none" stroke="#2f9b29" stroke-width="4" stroke-miterlimit="10" d="M605 598v232"/><path class="st6" d="M677 641V385h74"/><path d="M530 228h6v7h-6zm72 367h6v7h-6z"/><path fill="none" stroke="#d5d5d5" stroke-width="4" stroke-miterlimit="10" d="M605 933v60"/><path class="st6" d="M677 641h-52"/><path class="st4" d="M585 641h-52"/><path d="M751 382h7v6h-7z"/><path d="M605 983c-5.5 0-10 4.7-10 10.4v7.6h20v-7.6c0-5.7-4.5-10.4-10-10.4z" fill="#ccc"/><path class="st9" d="M600.5 1001v6"/><path fill="none" stroke="#000" stroke-width="2" stroke-linecap="round" stroke-miterlimit="10" stroke-dasharray="3,6" d="M54 723h750v240H54z"/><path class="st11" d="M568.2 576h34.2v18.3h-34.2z"/><path d="M577.3 586.7c-.1 0-.2 0-.3-.1-.1-.1-.1-.1-.1-.2v-9.8c0-.1 0-.2.1-.3s.1-.1.3-.1h3.7c1.1 0 2 .3 2.7.8.7.5 1 1.3 1 2.4 0 .8-.2 1.4-.6 1.9-.4.5-.9.8-1.6 1l2.3 4v.2c0 .1 0 .1-.1.2s-.1.1-.2.1h-.7c-.2 0-.3 0-.4-.1-.1-.1-.2-.2-.2-.3l-2.2-3.8h-2.6v3.9c0 .1 0 .2-.1.2-.1.1-.2.1-.3.1h-.7zm1.1-5.5h2.5c.8 0 1.3-.2 1.7-.5.4-.3.6-.8.6-1.4 0-.6-.2-1.1-.5-1.4-.4-.3-.9-.5-1.7-.5h-2.5v3.8zm7.8 5.5c-.1 0-.2 0-.2-.1-.1-.1-.1-.1-.1-.2v-.2l3.4-4.8-3.3-4.7v-.2c0-.1 0-.1.1-.2s.1-.1.2-.1h.9c.1 0 .2 0 .2.1s.1.1.2.2l2.6 3.8 2.6-3.8c0-.1.1-.1.2-.2s.1-.1.2-.1h.9c.1 0 .2 0 .2.1.1.1.1.1.1.2s0 .1-.1.2l-3.2 4.7 3.4 4.8v.2c0 .1 0 .1-.1.2s-.1.1-.2.1h-.9c-.1 0-.2 0-.2-.1-.1 0-.1-.1-.2-.2l-2.8-3.9-2.8 3.9-.2.2c-.1.1-.1.1-.2.1h-.7z"/><path class="st11" d="M543.2 744.8h34.2v18.3h-34.2z"/><path d="M551.2 755.6c-.8 0-1.6-.2-2.2-.5-.6-.3-1.1-.8-1.4-1.4-.3-.6-.5-1.4-.5-2.4v-6.1c0-.1 0-.2.1-.3s.1-.1.3-.1h.8c.1 0 .2 0 .3.1s.1.2.1.3v6.1c0 1 .2 1.7.7 2.2s1.1.7 1.9.7c.8 0 1.4-.2 1.9-.7s.7-1.2.7-2.2v-6.1c0-.1 0-.2.1-.3s.1-.1.2-.1h.8c.1 0 .2 0 .2.1s.1.2.1.3v6.1c0 1-.2 1.8-.5 2.4-.3.6-.8 1.1-1.4 1.4s-1.4.5-2.2.5zm9.2-.1c-.1 0-.2 0-.2-.1-.1-.1-.1-.1-.1-.2v-8.8h-2.9c-.1 0-.2 0-.2-.1-.1-.1-.1-.1-.1-.2v-.6c0-.1 0-.2.1-.3.1-.1.1-.1.2-.1h7.2c.1 0 .2 0 .3.1s.1.2.1.3v.6c0 .1 0 .2-.1.2-.1.1-.2.1-.3.1h-2.9v8.8c0 .1 0 .2-.1.2-.1.1-.2.1-.3.1h-.7zm6.4 0c-.1 0-.2 0-.3-.1-.1-.1-.1-.1-.1-.2v-9.8c0-.1 0-.2.1-.3s.1-.1.3-.1h3.8c.7 0 1.4.1 1.9.4.5.2 1 .6 1.3 1.1.3.5.4 1.1.4 1.8s-.2 1.3-.4 1.8c-.3.5-.7.8-1.3 1.1s-1.2.4-1.9.4h-2.7v3.8c0 .1 0 .2-.1.2-.1.1-.2.1-.3.1h-.7zm1.1-5.4h2.6c.7 0 1.3-.2 1.7-.5.4-.3.6-.8.6-1.4 0-.6-.2-1.1-.5-1.4-.4-.3-.9-.5-1.7-.5H568v3.8z"/><path class="st11" d="M608.2 576h34.2v18.3h-34.2z"/><path d="M620.2 586.7c-.1 0-.2 0-.2-.1-.1-.1-.1-.1-.1-.2v-8.8H617c-.1 0-.2 0-.2-.1-.1-.1-.1-.1-.1-.2v-.6c0-.1 0-.2.1-.3.1-.1.1-.1.2-.1h7.2c.1 0 .2 0 .3.1s.1.2.1.3v.6c0 .1 0 .2-.1.2-.1.1-.2.1-.3.1h-2.9v8.8c0 .1 0 .2-.1.2-.1.1-.2.1-.3.1h-.7zm5.4 0c-.1 0-.2 0-.2-.1-.1-.1-.1-.1-.1-.2v-.2l3.4-4.8-3.3-4.7v-.2c0-.1 0-.1.1-.2s.1-.1.2-.1h.9c.1 0 .2 0 .2.1.1 0 .1.1.2.2l2.6 3.8 2.6-3.8c0-.1.1-.1.2-.2s.1-.1.2-.1h.9c.1 0 .2 0 .2.1.1.1.1.1.1.2s0 .1-.1.2l-3.2 4.7 3.4 4.8v.2c0 .1 0 .1-.1.2s-.1.1-.2.1h-.9c-.1 0-.2 0-.2-.1-.1 0-.1-.1-.2-.2l-2.8-3.9-2.8 3.9-.2.2c-.1.1-.1.1-.2.1h-.7z"/><path class="st11" d="M588.2 837.5h34.2v18.3h-34.2z"/><path d="M593.3 848.1c-.1 0-.2 0-.3-.1-.1-.1-.1-.1-.1-.2V838c0-.1 0-.2.1-.3s.1-.1.3-.1h3.8c.7 0 1.4.1 1.9.4.5.2 1 .6 1.3 1.1.3.5.5 1.1.5 1.8s-.1 1.3-.5 1.8c-.3.5-.7.8-1.3 1.1-.5.2-1.2.4-1.9.4h-2.7v3.8c0 .1 0 .2-.1.2-.1.1-.2.1-.3.1h-.7zm1.2-5.3h2.6c.7 0 1.3-.2 1.7-.5s.6-.8.6-1.4c0-.6-.2-1.1-.5-1.4-.4-.3-.9-.5-1.7-.5h-2.6v3.8zm11 5.5c-.8 0-1.4-.1-1.9-.4-.5-.3-.9-.7-1.2-1.2-.3-.5-.4-1.1-.5-1.8v-1.3c0-.7.2-1.3.5-1.8s.7-.9 1.2-1.2c.5-.3 1.1-.4 1.9-.4s1.4.1 1.9.4c.5.3.9.7 1.2 1.2.3.5.4 1.1.5 1.8v1.3c0 .7-.2 1.2-.5 1.8-.3.5-.7.9-1.2 1.2-.5.2-1.1.4-1.9.4zm0-1.2c.6 0 1.1-.2 1.5-.6.4-.4.6-1 .6-1.7v-1.2c0-.8-.2-1.3-.6-1.7-.4-.4-.9-.6-1.5-.6s-1.1.2-1.5.6c-.4.4-.6 1-.6 1.7v1.2c0 .8.2 1.3.6 1.7.4.4.9.6 1.5.6zm5.9 1c-.1 0-.2 0-.3-.1-.1-.1-.1-.1-.1-.2V838c0-.1 0-.2.1-.3s.1-.1.3-.1h6.2c.1 0 .2 0 .3.1s.1.2.1.3v.6c0 .1 0 .2-.1.3-.1.1-.1.1-.3.1h-5.1v3.3h4.8c.1 0 .2 0 .3.1.1.1.1.2.1.3v.6c0 .1 0 .2-.1.2s-.1.1-.3.1h-4.8v3.4h5.2c.1 0 .2 0 .3.1.1.1.1.1.1.3v.6c0 .1 0 .2-.1.2-.1.1-.1.1-.3.1h-6.3z"/><path class="st11" d="M557.7 1017h95.2v18.3h-95.2z"/><path d="M582 1024.1c-.1 0-.1 0-.2-.1 0-.1-.1-.1-.1-.2v-.6c0-.2.1-.3.2-.4l.6-.3c.2-.1.5-.1.8-.1.3 0 .6 0 .9.1s.5.1.7.2c.2.1.4.1.7.2s.5.1.8.1c.3 0 .5-.1.7-.2.2-.1.3-.2.4-.3h.2c.1 0 .2 0 .2.1s.1.1.1.2v.6c0 .1-.1.3-.2.4-.2.1-.4.3-.6.3s-.5.1-.8.1c-.3 0-.6 0-.8-.1-.2-.1-.5-.1-.7-.2s-.4-.1-.7-.2c-.2-.1-.5-.1-.8-.1-.3 0-.5.1-.7.2-.2.1-.3.2-.4.3 0 0-.1 0-.1.1l-.2-.1zm8.1 3.6c-.1 0-.2 0-.2-.1-.1-.1-.1-.1-.1-.2v-.5c0-.1 0-.2.1-.3 0-.1.1-.2.3-.4l3.2-3.2c.5-.4.9-.8 1.2-1.1.3-.3.5-.6.6-.9.1-.3.2-.6.2-.9 0-.6-.2-1-.5-1.4-.3-.3-.8-.5-1.4-.5-.4 0-.7.1-1 .2s-.5.4-.7.7c-.2.3-.3.6-.3 1 0 .1-.1.2-.2.3s-.2.1-.2.1h-.8c-.1 0-.2 0-.2-.1-.1-.1-.1-.1-.1-.2 0-.4.1-.8.2-1.1s.4-.7.7-1c.3-.3.7-.6 1.1-.8.4-.2.9-.3 1.5-.3.8 0 1.4.1 1.9.4s.9.7 1.1 1.1c.2.5.4 1 .4 1.5 0 .4-.1.8-.2 1.2s-.4.7-.7 1.1c-.3.3-.6.7-1.1 1.1l-2.9 2.9h4.7c.1 0 .2 0 .3.1.1.1.1.1.1.3v.6c0 .1 0 .2-.1.2-.1.1-.2.1-.3.1h-6.6zm12.2.1c-.6 0-1.2-.1-1.7-.2-.5-.2-.9-.4-1.2-.6-.3-.3-.6-.5-.7-.9-.2-.3-.3-.6-.3-1 0-.1 0-.2.1-.2s.1-.1.2-.1h.7c.1 0 .2 0 .2.1.1 0 .1.1.2.3.1.4.3.6.5.8.2.2.5.3.9.4.3.1.7.1 1 .1.7 0 1.2-.2 1.7-.5.4-.3.6-.8.6-1.5 0-.6-.2-1.1-.6-1.4-.4-.3-.9-.4-1.6-.4H601c-.1 0-.2 0-.2-.1-.1-.1-.1-.1-.1-.3v-.4c0-.1 0-.2.1-.2 0-.1.1-.1.1-.2l2.9-3.2h-4.4c-.1 0-.2 0-.2-.1-.1-.1-.1-.1-.1-.3v-.6c0-.1 0-.2.1-.3.1-.1.1-.1.2-.1h6c.1 0 .2 0 .3.1s.1.2.1.3v.5c0 .1 0 .1-.1.2 0 .1-.1.1-.1.2l-2.9 3.2h.2c.7 0 1.2.1 1.7.4.5.2.9.5 1.2 1 .3.4.4 1 .4 1.6 0 .7-.2 1.2-.5 1.7s-.8.8-1.4 1.1c-.6.5-1.3.6-2 .6zm9.3 0c-.7 0-1.3-.1-1.7-.3-.5-.2-.9-.5-1.2-.9-.3-.4-.5-.8-.7-1.3-.1-.5-.2-1-.2-1.6v-2.7c0-.5.1-1.1.2-1.6s.4-.9.7-1.3.7-.7 1.2-.9 1.1-.3 1.7-.3c.7 0 1.3.1 1.7.3s.9.5 1.2.9c.3.4.5.8.7 1.3.1.5.2 1 .2 1.6v2.7c0 .5-.1 1.1-.2 1.6s-.4.9-.7 1.3c-.3.4-.7.7-1.2.9-.4.2-1 .3-1.7.3zm0-1.3c.8 0 1.4-.3 1.7-.8.4-.5.6-1.2.6-2.1v-2.4c0-.9-.2-1.6-.6-2.1-.4-.5-1-.8-1.7-.8-.8 0-1.3.3-1.7.8-.4.5-.6 1.2-.6 2.1v2.4c0 .9.2 1.6.6 2.1.4.6.9.8 1.7.8zm10.1 1.2c-.1 0-.2 0-.3-.1-.1-.1-.1-.1-.1-.2v-9.8c0-.1 0-.2.1-.3.1-.1.1-.1.3-.1h4.1c.8 0 1.4.1 1.8.4.5.2.8.6 1.1 1s.3.9.3 1.4c0 .4-.1.8-.2 1.1-.1.3-.3.5-.5.7-.2.2-.4.3-.6.4.4.2.7.5 1 .9s.5 1 .5 1.6c0 .6-.1 1.1-.4 1.5s-.6.8-1.1 1.1c-.5.3-1.1.4-1.8.4h-4.2zm1.1-6.1h2.8c.6 0 1.1-.1 1.5-.4.3-.3.5-.7.5-1.2s-.2-.9-.5-1.2c-.3-.3-.8-.4-1.5-.4h-2.8v3.2zm0 4.9h2.9c.6 0 1.1-.2 1.5-.5.3-.3.5-.8.5-1.3s-.2-1-.5-1.3c-.3-.3-.8-.5-1.5-.5h-2.9v3.6z"/><path class="st0" d="M372 831h140v102H372z"/><path class="st11" d="M521.5 869h167.7v36.7H521.5z"/><path d="M557.5 879.6c-.1 0-.2 0-.3-.1-.1-.1-.1-.1-.1-.2v-9.8c0-.1 0-.2.1-.3s.1-.1.3-.1h6.5c.1 0 .2 0 .3.1s.1.2.1.3v.6c0 .1 0 .2-.1.2-.1.1-.2.1-.3.1h-5.4v3h3c1.1 0 1.9.3 2.5.8.6.5.9 1.3.9 2.2 0 .4-.1.7-.2 1.1s-.3.7-.6 1-.6.5-1 .7c-.4.2-.9.3-1.5.3h-4.2zm1.1-1.2h2.8c.4 0 .8-.1 1.1-.3.3-.2.5-.4.7-.7.2-.3.2-.6.2-1 0-.5-.2-1-.5-1.3-.3-.3-.8-.5-1.5-.5h-2.8v3.8zm7.5 1.2c-.1 0-.2 0-.3-.1-.1-.1-.1-.2-.1-.3v-.6c0-.2.1-.3.3-.3.3 0 .6-.2.8-.4.2-.3.4-.7.5-1.4.1-.6.2-1.5.2-2.5v-1.9c0-.1 0-.2.1-.2.1-.1.1-.1.2-.1h4.8c.1 0 .2 0 .2.1.1.1.1.1.1.2v7.1c0 .1 0 .2-.1.2-.1.1-.1.1-.2.1h-.7c-.1 0-.2 0-.2-.1-.1-.1-.1-.1-.1-.2V873h-2.7v1.2c0 1-.1 1.8-.2 2.5s-.3 1.2-.5 1.7-.5.7-.9.9-.7.3-1.2.3zm12.3.2c-.8 0-1.4-.1-1.9-.4-.5-.3-.9-.7-1.2-1.2-.3-.5-.4-1.1-.5-1.8v-1.3c0-.7.2-1.3.5-1.8s.7-.9 1.2-1.2c.5-.3 1.1-.4 1.9-.4.8 0 1.4.1 1.9.4.5.3.9.7 1.2 1.2.3.5.4 1.1.5 1.8v1.3c0 .7-.2 1.2-.5 1.8-.3.5-.7.9-1.2 1.2s-1.1.4-1.9.4zm0-1.2c.6 0 1.1-.2 1.5-.6.4-.4.6-1 .6-1.7v-1.2c0-.8-.2-1.3-.6-1.7-.4-.4-.9-.6-1.5-.6s-1.1.2-1.5.6c-.4.4-.6 1-.6 1.7v1.2c0 .8.2 1.3.6 1.7.4.4.9.6 1.5.6zm5.8 1c-.1 0-.2 0-.2-.1-.1-.1-.1-.1-.1-.2v-7.1c0-.1 0-.2.1-.2.1-.1.1-.1.2-.1h.7c.1 0 .2 0 .2.1.1.1.1.1.1.2v2.9h1.4l2-3 .2-.2c.1 0 .1-.1.2-.1h.8c.1 0 .2 0 .2.1.1 0 .1.1.1.2v.1s0 .1-.1.1l-2.2 3.3 2.5 3.6c0 .1.1.1.1.2s0 .1-.1.2-.1.1-.2.1h-.9c-.1 0-.2 0-.2-.1-.1 0-.1-.1-.2-.2l-2.2-3.1h-1.4v3c0 .1 0 .2-.1.2-.1.1-.1.1-.2.1h-.7zm11.7 0c-.1 0-.2 0-.2-.1-.1-.1-.1-.1-.1-.2v-7.1c0-.1 0-.2.1-.2.1-.1.1-.1.2-.1h6c.1 0 .2 0 .2.1.1.1.1.1.1.2v7.1c0 .1 0 .2-.1.2-.1.1-.1.1-.2.1h-.7c-.1 0-.2 0-.2-.1-.1-.1-.1-.1-.1-.2V873H597v6.3c0 .1 0 .2-.1.2-.1.1-.1.1-.2.1h-.8zm8.9 0c-.1 0-.2 0-.2-.1-.1-.1-.1-.1-.1-.2v-7.1c0-.1 0-.2.1-.2.1-.1.1-.1.2-.1h.7c.1 0 .2 0 .2.1.1.1.1.1.1.2v6.4l-.4-.4 4.5-6.1c0-.1.1-.1.2-.2.1 0 .1-.1.2-.1h.7c.1 0 .2 0 .2.1.1.1.1.1.1.2v7.2c0 .1 0 .2-.1.2-.1.1-.1.1-.2.1h-.7c-.1 0-.2 0-.3-.1-.1-.1-.1-.1-.1-.2v-6h.4l-4.6 6.1-.1.1c-.1.1-.1.1-.2.1h-.6zm11.1 0c-.1 0-.2 0-.2-.1-.1-.1-.1-.1-.1-.2V873H613c-.1 0-.2 0-.2-.1-.1-.1-.1-.1-.1-.2v-.5c0-.1 0-.2.1-.2.1-.1.1-.1.2-.1h6.6c.1 0 .2 0 .2.1.1.1.1.1.1.2v.5c0 .1 0 .2-.1.2-.1.1-.1.1-.2.1H617v6.3c0 .1 0 .2-.1.2-.1.1-.1.1-.2.1h-.8zm7.5.2c-.5 0-1-.1-1.4-.3-.4-.2-.7-.5-1-.8s-.4-.7-.4-1.2c0-.7.3-1.2.8-1.6.6-.4 1.3-.7 2.2-.8l2.2-.3v-.4c0-.5-.1-.9-.4-1.1-.3-.3-.7-.4-1.3-.4-.4 0-.8.1-1.1.3-.3.2-.5.4-.6.7-.1.1-.2.2-.3.2h-.7c-.1 0-.2 0-.2-.1-.1-.1-.1-.1-.1-.2 0-.2.1-.3.2-.6.1-.2.3-.4.5-.6s.5-.4.9-.5.8-.2 1.4-.2c.6 0 1.1.1 1.5.2.4.2.7.4 1 .6.2.3.4.6.5.9.1.3.2.7.2 1v4.9c0 .1 0 .2-.1.2-.1.1-.1.1-.2.1h-.7c-.1 0-.2 0-.3-.1-.1-.1-.1-.1-.1-.2v-.6c-.1.2-.3.4-.5.5-.2.2-.5.3-.8.4s-.7 0-1.2 0zm.3-1.1c.4 0 .8-.1 1.1-.3s.6-.4.8-.8.3-.8.3-1.4v-.4l-1.7.3c-.7.1-1.2.3-1.6.5-.4.2-.5.5-.5.9 0 .3.1.5.2.7.2.2.4.3.6.4.3 0 .6.1.8.1zm6.2.9c-.1 0-.2 0-.2-.1-.1-.1-.1-.1-.1-.2v-7.1c0-.1 0-.2.1-.2.1-.1.1-.1.2-.1h.7c.1 0 .2 0 .2.1.1.1.1.1.1.2v2.9h4.1v-2.9c0-.1 0-.2.1-.2.1-.1.1-.1.2-.1h.7c.1 0 .2 0 .2.1.1.1.1.1.1.2v7.1c0 .1 0 .2-.1.2-.1.1-.1.1-.2.1h-.7c-.1 0-.2 0-.2-.1-.1-.1-.1-.1-.1-.2v-3h-4.1v3c0 .1 0 .2-.1.2-.1.1-.1.1-.2.1h-.7zm9.1 0c-.1 0-.2 0-.2-.1-.1-.1-.1-.1-.1-.2v-7.1c0-.1 0-.2.1-.2.1-.1.1-.1.2-.1h.7c.1 0 .2 0 .2.1.1.1.1.1.1.2v6.4l-.4-.4 4.5-6.1c0-.1.1-.1.2-.2.1 0 .1-.1.2-.1h.7c.1 0 .2 0 .2.1.1.1.1.1.1.2v7.2c0 .1 0 .2-.1.2-.1.1-.1.1-.2.1h-.7c-.1 0-.2 0-.3-.1-.1-.1-.1-.1-.1-.2v-6h.4l-4.6 6.1-.1.1c-.1.1-.1.1-.2.1h-.6zm8.9 0c-.1 0-.2 0-.2-.1-.1-.1-.1-.1-.1-.2v-.1s0-.1.1-.1l1.8-2.6 1.4.1-1.9 2.9s-.1.1-.2.1c-.1.1-.1.1-.2.1h-.7zm4.7 0c-.1 0-.2 0-.3-.1-.1-.1-.1-.1-.1-.2v-2.4h-1.7v-.1c-.9 0-1.6-.2-2.1-.7s-.7-1.1-.7-1.8c0-.8.2-1.5.7-1.9.5-.4 1.2-.6 2.2-.6h2.6c.1 0 .2 0 .2.1.1.1.1.1.1.2v7.1c0 .1 0 .2-.1.2-.1.1-.1.1-.2.1h-.6zm-2-3.9h1.7V873h-1.6c-.6 0-1 .1-1.2.3-.3.2-.4.5-.4 1 0 .4.1.8.4 1 .2.3.6.4 1.1.4zm-108 19.9c-.1 0-.2 0-.2-.1-.1-.1-.1-.1-.1-.2v-7.1c0-.1 0-.2.1-.2.1-.1.1-.1.2-.1h6c.1 0 .2 0 .2.1.1.1.1.1.1.2v7.1c0 .1 0 .2-.1.2-.1.1-.1.1-.2.1h-.7c-.1 0-.2 0-.2-.1-.1-.1-.1-.1-.1-.2V889h-3.8v6.3c0 .1 0 .2-.1.2-.1.1-.1.1-.2.1h-.9zm11.7.2c-.8 0-1.4-.1-1.9-.4-.5-.3-.9-.7-1.2-1.2-.3-.5-.4-1.1-.5-1.8v-1.3c0-.7.2-1.3.5-1.8s.7-.9 1.2-1.2c.5-.3 1.1-.4 1.9-.4s1.4.1 1.9.4c.5.3.9.7 1.2 1.2.3.5.4 1.1.5 1.8v1.3c0 .7-.2 1.2-.5 1.8-.3.5-.7.9-1.2 1.2-.5.2-1.1.4-1.9.4zm0-1.2c.6 0 1.1-.2 1.5-.6.4-.4.6-1 .6-1.7v-1.2c0-.8-.2-1.3-.6-1.7-.4-.4-.9-.6-1.5-.6s-1.1.2-1.5.6c-.4.4-.6 1-.6 1.7v1.2c0 .8.2 1.3.6 1.7.4.4.9.6 1.5.6zm8.6 1.2c-.7 0-1.3-.1-1.8-.4-.5-.3-.9-.7-1.2-1.2-.3-.5-.4-1.1-.5-1.9v-1.2c0-.7.2-1.3.5-1.9.3-.5.7-.9 1.2-1.2.5-.3 1.1-.4 1.8-.4.6 0 1.1.1 1.5.2s.8.4 1 .6.5.5.6.8.2.6.2.8c0 .1 0 .2-.1.2-.1.1-.2.1-.3.1h-.7c-.1 0-.2 0-.2-.1s-.1-.1-.2-.2c-.2-.5-.4-.8-.7-1s-.7-.3-1.2-.3c-.6 0-1.1.2-1.5.6s-.6 1-.6 1.8v1c0 .8.2 1.4.6 1.8.4.4.9.5 1.5.5.5 0 .8-.1 1.2-.3s.6-.5.7-1c.1-.1.1-.2.2-.2s.1-.1.2-.1h.7c.1 0 .2 0 .3.1.1.1.1.1.1.2 0 .2-.1.4-.1.6-.1.2-.2.4-.4.7-.2.2-.4.4-.7.6-.3.2-.6.3-.9.4-.4.3-.8.4-1.2.4zm7.5-.2c-.1 0-.2 0-.2-.1-.1-.1-.1-.1-.1-.2V889h-2.6c-.1 0-.2 0-.2-.1-.1-.1-.1-.1-.1-.2v-.5c0-.1 0-.2.1-.2.1-.1.1-.1.2-.1h6.6c.1 0 .2 0 .2.1.1.1.1.1.1.2v.5c0 .1 0 .2-.1.2-.1.1-.1.1-.2.1h-2.6v6.3c0 .1 0 .2-.1.2-.1.1-.1.1-.2.1h-.8zm8.5.2c-.8 0-1.4-.1-1.9-.4-.5-.3-.9-.7-1.2-1.2-.3-.5-.4-1.1-.5-1.8v-1.3c0-.7.2-1.3.5-1.8s.7-.9 1.2-1.2 1.1-.4 1.9-.4 1.4.1 1.9.4c.5.3.9.7 1.2 1.2.3.5.4 1.1.5 1.8v1.3c0 .7-.2 1.2-.5 1.8-.3.5-.7.9-1.2 1.2s-1.2.4-1.9.4zm0-1.2c.6 0 1.1-.2 1.5-.6.4-.4.6-1 .6-1.7v-1.2c0-.8-.2-1.3-.6-1.7-.4-.4-.9-.6-1.5-.6s-1.1.2-1.5.6c-.4.4-.6 1-.6 1.7v1.2c0 .8.2 1.3.6 1.7.3.4.8.6 1.5.6zm5.5 1c-.1 0-.2 0-.2-.1-.1-.1-.1-.1-.1-.2v-.1s0-.1.1-.1l1.8-2.6 1.4.1-1.9 2.9s-.1.1-.2.1c-.1.1-.1.1-.2.1h-.7zm4.7 0c-.1 0-.2 0-.3-.1-.1-.1-.1-.1-.1-.2v-2.4H587v-.1c-.9 0-1.6-.2-2.1-.7s-.7-1.1-.7-1.8c0-.8.2-1.5.7-1.9.5-.4 1.2-.6 2.2-.6h2.6c.1 0 .2 0 .2.1.1.1.1.1.1.2v7.1c0 .1 0 .2-.1.2-.1.1-.1.1-.2.1h-.6zm-2-3.9h1.7V889h-1.6c-.6 0-1 .1-1.2.3-.3.2-.4.5-.4 1 0 .4.1.8.4 1 .2.3.6.4 1.1.4zm5.7 3.9c-.1 0-.2 0-.2-.1-.1-.1-.1-.1-.1-.2v-7.1c0-.1 0-.2.1-.2.1-.1.1-.1.2-.1h.7c.1 0 .2 0 .2.1.1.1.1.1.1.2v2.9h4.1v-2.9c0-.1 0-.2.1-.2.1-.1.1-.1.2-.1h.7c.1 0 .2 0 .2.1.1.1.1.1.1.2v7.1c0 .1 0 .2-.1.2-.1.1-.1.1-.2.1h-.7c-.1 0-.2 0-.2-.1-.1-.1-.1-.1-.1-.2v-3h-4.1v3c0 .1 0 .2-.1.2-.1.1-.1.1-.2.1h-.7zm9.1 0c-.1 0-.2 0-.2-.1-.1-.1-.1-.1-.1-.2v-7.1c0-.1 0-.2.1-.2.1-.1.1-.1.2-.1h.7c.1 0 .2 0 .2.1.1.1.1.1.1.2v2.9h4.1v-2.9c0-.1 0-.2.1-.2.1-.1.1-.1.2-.1h.7c.1 0 .2 0 .2.1.1.1.1.1.1.2v7.1c0 .1 0 .2-.1.2-.1.1-.1.1-.2.1h-.7c-.1 0-.2 0-.2-.1-.1-.1-.1-.1-.1-.2v-3h-4v3c0 .1 0 .2-.1.2-.1.1-.1.1-.2.1h-.8zm12 .2c-.8 0-1.4-.1-1.9-.4-.5-.3-.9-.7-1.2-1.2-.3-.5-.4-1.1-.5-1.8v-1.3c0-.7.2-1.3.5-1.8s.7-.9 1.2-1.2 1.1-.4 1.9-.4 1.4.1 1.9.4c.5.3.9.7 1.2 1.2.3.5.4 1.1.5 1.8v1.3c0 .7-.2 1.2-.5 1.8-.3.5-.7.9-1.2 1.2s-1.1.4-1.9.4zm0-1.2c.6 0 1.1-.2 1.5-.6.4-.4.6-1 .6-1.7v-1.2c0-.8-.2-1.3-.6-1.7-.4-.4-.9-.6-1.5-.6s-1.1.2-1.5.6c-.4.4-.6 1-.6 1.7v1.2c0 .8.2 1.3.6 1.7.4.4.9.6 1.5.6zm5.8 1c-.1 0-.2 0-.2-.1-.1-.1-.1-.1-.1-.2v-7.1c0-.1 0-.2.1-.2.1-.1.1-.1.2-.1h4.5c.1 0 .2 0 .2.1.1.1.1.1.1.2v.5c0 .1 0 .2-.1.2-.1.1-.1.1-.2.1h-3.4v6.3c0 .1 0 .2-.1.2-.1.1-.1.1-.2.1h-.8zm9.1.2c-.8 0-1.4-.1-1.9-.4-.5-.3-.9-.7-1.2-1.2-.3-.5-.4-1.1-.5-1.8v-1.3c0-.7.2-1.3.5-1.8s.7-.9 1.2-1.2 1.1-.4 1.9-.4 1.4.1 1.9.4c.5.3.9.7 1.2 1.2.3.5.4 1.1.5 1.8v1.3c0 .7-.2 1.2-.5 1.8-.3.5-.7.9-1.2 1.2s-1.1.4-1.9.4zm0-1.2c.6 0 1.1-.2 1.5-.6.4-.4.6-1 .6-1.7v-1.2c0-.8-.2-1.3-.6-1.7-.4-.4-.9-.6-1.5-.6s-1.1.2-1.5.6c-.4.4-.6 1-.6 1.7v1.2c0 .8.2 1.3.6 1.7.4.4.9.6 1.5.6zm11.5 1c-.1 0-.2 0-.2-.1-.1-.1-.1-.1-.1-.2V889h-2.6c-.1 0-.2 0-.2-.1-.1-.1-.1-.1-.1-.2v-.5c0-.1 0-.2.1-.2.1-.1.1-.1.2-.1h6.6c.1 0 .2 0 .2.1.1.1.1.1.1.2v.5c0 .1 0 .2-.1.2-.1.1-.1.1-.2.1h-2.6v6.3c0 .1 0 .2-.1.2-.1.1-.1.1-.2.1h-.8zm8.5.2c-.8 0-1.4-.1-1.9-.4-.5-.3-.9-.7-1.2-1.2-.3-.5-.4-1.1-.5-1.8v-1.3c0-.7.2-1.3.5-1.8s.7-.9 1.2-1.2 1.1-.4 1.9-.4 1.4.1 1.9.4c.5.3.9.7 1.2 1.2.3.5.4 1.1.5 1.8v1.3c0 .7-.2 1.2-.5 1.8-.3.5-.7.9-1.2 1.2s-1.2.4-1.9.4zm0-1.2c.6 0 1.1-.2 1.5-.6.4-.4.6-1 .6-1.7v-1.2c0-.8-.2-1.3-.6-1.7-.4-.4-.9-.6-1.5-.6s-1.1.2-1.5.6c-.4.4-.6 1-.6 1.7v1.2c0 .8.2 1.3.6 1.7.4.4.9.6 1.5.6zm5.7 1c-.1 0-.2 0-.2-.1-.1-.1-.1-.1-.1-.2v-7.1c0-.1 0-.2.1-.2.1-.1.1-.1.2-.1h.7c.1 0 .2 0 .2.1.1.1.1.1.1.2v2.9h1.4l2-3 .2-.2c.1 0 .1-.1.2-.1h.8c.1 0 .2 0 .2.1.1 0 .1.1.1.2v.1s0 .1-.1.1l-2.2 3.3 2.5 3.6c0 .1.1.1.1.2s0 .1-.1.2-.1.1-.2.1h-.9c-.1 0-.2 0-.2-.1-.1 0-.1-.1-.2-.2l-2.2-3.1h-1.4v3c0 .1 0 .2-.1.2-.1.1-.1.1-.2.1h-.7zm9.9.2c-.5 0-1-.1-1.4-.3-.4-.2-.7-.5-1-.8s-.4-.7-.4-1.2c0-.7.3-1.2.8-1.6.6-.4 1.3-.7 2.2-.8l2.2-.3v-.4c0-.5-.1-.9-.4-1.1-.3-.3-.7-.4-1.3-.4-.4 0-.8.1-1.1.3-.3.2-.5.4-.6.7-.1.1-.2.2-.3.2h-.7c-.1 0-.2 0-.2-.1-.1-.1-.1-.1-.1-.2 0-.2.1-.3.2-.6.1-.2.3-.4.5-.6s.5-.4.9-.5.8-.2 1.4-.2c.6 0 1.1.1 1.5.2.4.2.7.4 1 .6.2.3.4.6.5.9.1.3.2.7.2 1v4.9c0 .1 0 .2-.1.2-.1.1-.1.1-.2.1h-.7c-.1 0-.2 0-.3-.1-.1-.1-.1-.1-.1-.2v-.6c-.1.2-.3.4-.5.5-.2.2-.5.3-.8.4s-.7 0-1.2 0zm.3-1.1c.4 0 .8-.1 1.1-.3s.6-.4.8-.8.3-.8.3-1.4v-.4l-1.7.3c-.7.1-1.2.3-1.6.5-.4.2-.5.5-.5.9 0 .3.1.5.2.7.2.2.4.3.6.4.3 0 .6.1.8.1z"/><path class="st11" d="M84.3 753.5H292v241.8H84.3z"/><path d="M86.4 767c-.1 0-.2 0-.3-.1-.1-.1-.1-.2-.1-.3v-12.4c0-.1 0-.2.1-.3.1-.1.2-.1.3-.1h4.8c.9 0 1.8.2 2.4.5.7.3 1.2.8 1.6 1.4s.6 1.4.6 2.3c0 .9-.2 1.6-.6 2.2-.4.6-.9 1-1.6 1.3-.7.3-1.5.5-2.4.5h-3.4v4.8c0 .1 0 .2-.1.3-.1.1-.2.1-.3.1h-1zm1.5-6.8h3.3c.9 0 1.6-.2 2.1-.6.5-.4.7-1 .7-1.8s-.2-1.4-.7-1.8c-.5-.4-1.2-.6-2.1-.6h-3.3v4.8zm14 7c-1.3 0-2.4-.4-3.1-1.2-.8-.8-1.2-1.9-1.3-3.3v-1.2c.1-.9.3-1.7.6-2.4.4-.7.9-1.2 1.5-1.6.6-.4 1.4-.6 2.3-.6 1 0 1.8.2 2.4.6.7.4 1.1 1 1.5 1.7.3.7.5 1.6.5 2.6v.3c0 .1 0 .2-.1.3-.1.1-.2.1-.3.1h-6.6v.2c0 .5.1 1 .3 1.5.2.5.5.8.9 1.1.4.3.8.4 1.4.4.5 0 .8-.1 1.1-.2s.6-.3.7-.5l.4-.4c.1-.2.2-.2.3-.3h1.2c.1 0 .2 0 .3.1.1.1.1.2.1.3 0 .2-.1.4-.3.7-.2.3-.5.5-.8.8-.3.3-.8.5-1.3.7-.5.2-1.1.3-1.7.3zm-2.6-5.9h5.2v-.1c0-.6-.1-1.1-.3-1.5s-.5-.8-.9-1.1c-.4-.3-.9-.4-1.4-.4s-1 .1-1.4.4c-.4.3-.7.6-.9 1.1-.2.5-.3 1-.3 1.6zm9.7 5.7c-.1 0-.2 0-.3-.1-.1-.1-.1-.2-.1-.3v-9c0-.1 0-.2.1-.3.1-.1.2-.1.3-.1h.9c.1 0 .2 0 .3.1.1.1.1.2.1.3v3.6h1.7l2.6-3.8c.1-.1.1-.2.2-.2s.2-.1.3-.1h1c.1 0 .2 0 .3.1s.1.1.1.2v.1s0 .1-.1.1l-2.9 4.2 3.2 4.6c.1.1.1.2.1.2 0 .1 0 .2-.1.2-.1.1-.2.1-.3.1h-1.2c-.1 0-.2 0-.3-.1l-.2-.2-2.8-4h-1.7v3.8c0 .1 0 .2-.1.3-.1.1-.2.1-.3.1h-.8zm13.3.2c-1 0-1.8-.2-2.4-.6-.6-.4-1.1-.9-1.5-1.5-.3-.7-.5-1.4-.6-2.2v-1.6c0-.8.2-1.6.6-2.2.3-.6.8-1.2 1.5-1.5.6-.4 1.4-.6 2.4-.6s1.7.2 2.4.6c.6.4 1.1.9 1.5 1.5.3.6.5 1.4.6 2.2v1.6c0 .8-.2 1.6-.6 2.2-.3.7-.8 1.2-1.5 1.5-.6.4-1.4.6-2.4.6zm0-1.5c.8 0 1.4-.2 1.9-.8s.7-1.2.8-2.2v-1.4c0-1-.3-1.7-.8-2.2s-1.1-.8-1.9-.8c-.8 0-1.4.3-1.9.8s-.7 1.2-.8 2.2v1.4c0 1 .3 1.7.8 2.2s1.2.8 1.9.8zm7.3 1.3c-.1 0-.2 0-.3-.1-.1-.1-.1-.2-.1-.3v-9.1c0-.1 0-.2.1-.3s.2-.1.3-.1h1c.2 0 .4.1.5.3l3.2 6 3.2-6c.1-.2.3-.3.5-.3h1c.1 0 .2 0 .3.1.1.1.1.2.1.3v9.1c0 .1 0 .2-.1.3-.1.1-.2.1-.3.1h-1c-.1 0-.2 0-.3-.1s-.1-.2-.1-.3V759l.7.1-3.1 5.9c-.1.1-.1.2-.2.3-.1.1-.2.2-.4.2h-.6c-.2 0-.3-.1-.4-.2-.1-.1-.2-.2-.2-.3l-3-5.6.6-.1v7.3c0 .1 0 .2-.1.3-.1.1-.2.1-.3.1h-1zm16.5.2c-1.3 0-2.4-.4-3.1-1.2-.8-.8-1.2-1.9-1.3-3.3v-1.2c0-.9.3-1.7.6-2.4.4-.7.9-1.2 1.5-1.6.6-.4 1.4-.6 2.3-.6 1 0 1.8.2 2.4.6s1.1 1 1.5 1.7c.3.7.5 1.6.5 2.6v.3c0 .1 0 .2-.1.3-.1.1-.2.1-.3.1h-6.6v.2c0 .5.1 1 .3 1.5.2.5.5.8.9 1.1s.8.4 1.4.4c.5 0 .8-.1 1.1-.2.3-.1.6-.3.7-.5l.4-.4c.1-.2.2-.2.3-.3h1.2c.1 0 .2 0 .3.1.1.1.1.2.1.3 0 .2-.1.4-.3.7-.2.3-.5.5-.8.8-.3.3-.8.5-1.3.7s-1 .3-1.7.3zm-2.6-5.9h5.2v-.1c0-.6-.1-1.1-.3-1.5s-.5-.8-.9-1.1c-.4-.3-.9-.4-1.4-.4s-1 .1-1.4.4c-.4.3-.7.6-.9 1.1-.2.5-.3 1-.3 1.6zm9.7 5.7c-.1 0-.2 0-.3-.1-.1-.1-.1-.2-.1-.3v-9c0-.1 0-.2.1-.3.1-.1.2-.1.3-.1h.9c.1 0 .2 0 .3.1.1.1.1.2.1.3v3.6h5.2v-3.6c0-.1 0-.2.1-.3.1-.1.2-.1.3-.1h.9c.1 0 .2 0 .3.1.1.1.1.2.1.3v9c0 .1 0 .2-.1.3-.1.1-.2.1-.3.1h-.9c-.1 0-.2 0-.3-.1-.1-.1-.1-.2-.1-.3v-3.8h-5.2v3.8c0 .1 0 .2-.1.3-.1.1-.2.1-.3.1h-.9zm10.6 2.1c-.1 0-.2 0-.3-.1-.1-.1-.1-.2-.1-.3V766c0-.1 0-.2.1-.3s.2-.1.3-.1h.1c.3 0 .6-.2.9-.6.2-.4.4-1 .6-1.8.1-.8.2-1.9.2-3.1v-2.4c0-.1 0-.2.1-.3.1-.1.2-.1.3-.1h6.1c.1 0 .2 0 .3.1.1.1.1.2.1.3v7.9h.9c.1 0 .2 0 .3.1.1.1.1.2.1.3v2.8c0 .1 0 .2-.1.3-.1.1-.2.1-.3.1h-.9c-.1 0-.2 0-.3-.1-.1-.1-.1-.2-.1-.3V767h-6.9v1.7c0 .1 0 .2-.1.3-.1.1-.2.1-.3.1h-1zm2.4-3.6h4.5v-6.8h-3.4v1.6c0 1.3-.1 2.4-.3 3.3-.2.7-.5 1.4-.8 1.9zm12.7 1.2l-3.8-8.9c-.1-.2-.1-.3-.1-.3 0-.1.1-.2.1-.3.1-.1.2-.1.3-.1h.9c.1 0 .2 0 .3.1l.2.2 3.2 7.5-1.1 1.8zm-2.7 3.9c-.1 0-.2 0-.3-.1-.1-.1-.1-.2-.1-.3v-.6c0-.1 0-.2.1-.3.1-.1.2-.1.3-.1h.5c.3 0 .5-.1.7-.2.2-.1.3-.3.5-.6s.3-.6.5-1.1l4.1-9.8c0-.1.1-.2.2-.2.1-.1.2-.1.3-.1h.9c.1 0 .2 0 .3.1.1.1.1.2.1.3v.1s0 .1-.1.2l-3.6 8.5c-.2.5-.4.9-.6 1.4-.2.5-.5 1-.8 1.4s-.6.8-1 1c-.4.3-.8.4-1.3.4h-.7zm13.6-3.4c-1.3 0-2.4-.4-3.1-1.2-.8-.8-1.2-1.9-1.3-3.3v-1.2c0-.9.3-1.7.6-2.4.4-.7.9-1.2 1.5-1.6.6-.4 1.4-.6 2.3-.6 1 0 1.8.2 2.4.6s1.1 1 1.5 1.7c.3.7.5 1.6.5 2.6v.3c0 .1 0 .2-.1.3-.1.1-.2.1-.3.1h-6.6v.2c0 .5.1 1 .3 1.5.2.5.5.8.9 1.1s.8.4 1.4.4c.5 0 .8-.1 1.1-.2.3-.1.6-.3.7-.5l.4-.4c.1-.2.2-.2.3-.3h1.2c.1 0 .2 0 .3.1.1.1.1.2.1.3 0 .2-.1.4-.3.7-.2.3-.5.5-.8.8-.3.3-.8.5-1.3.7s-1.1.3-1.7.3zm-2.6-5.9h5.2v-.1c0-.6-.1-1.1-.3-1.5s-.5-.8-.9-1.1c-.4-.3-.9-.4-1.4-.4s-1 .1-1.4.4c-.4.3-.7.6-.9 1.1-.2.5-.3 1-.3 1.6zm12.3 5.7c-.1 0-.2 0-.3-.1-.1-.1-.1-.2-.1-.3v-7.9h-3.3c-.1 0-.2 0-.3-.1-.1-.1-.1-.2-.1-.3v-.6c0-.1 0-.2.1-.3.1-.1.2-.1.3-.1h8.4c.1 0 .2 0 .3.1.1.1.1.2.1.3v.6c0 .1 0 .2-.1.3s-.2.1-.3.1h-3.3v7.9c0 .1 0 .2-.1.3-.1.1-.2.1-.3.1h-1zm10.7.2c-.9 0-1.7-.2-2.3-.5-.7-.3-1.2-.8-1.5-1.5-.4-.7-.5-1.4-.6-2.3v-1.6c0-.9.2-1.7.6-2.3.4-.7.9-1.2 1.5-1.5.7-.3 1.4-.5 2.3-.5.7 0 1.4.1 1.9.3.5.2 1 .5 1.3.8.3.3.6.7.8 1s.3.7.3 1c0 .1 0 .2-.1.3-.1.1-.2.1-.3.1h-.9c-.1 0-.2 0-.3-.1-.1-.1-.1-.2-.2-.3-.2-.6-.5-1.1-.9-1.3-.4-.3-.9-.4-1.5-.4-.8 0-1.4.2-1.9.7-.5.5-.7 1.2-.8 2.3v1.3c0 1.1.3 1.8.8 2.3.5.5 1.1.7 1.9.7.6 0 1.1-.1 1.5-.4.4-.3.7-.7.9-1.3.1-.1.1-.2.2-.3s.2-.1.3-.1h.9c.1 0 .2 0 .3.1.1.1.1.2.1.3 0 .3-.1.5-.2.8-.1.3-.3.6-.5.8l-.8.8c-.3.2-.7.4-1.2.5s-1 .3-1.6.3zm6.6-.2c-.1 0-.2 0-.3-.1s-.1-.2-.1-.3v-.2c0-.1.1-.1.1-.2l2.3-3.3 1.8.1-2.4 3.6-.2.2c-.1.1-.2.1-.3.1h-.9zm6.1 0c-.1 0-.2 0-.3-.1-.1-.1-.1-.2-.1-.3v-3.1h-2.2v-.1c-1.2 0-2.1-.3-2.7-.9-.6-.6-.9-1.3-.9-2.3 0-1.1.3-1.8.9-2.4s1.6-.8 2.8-.8h3.3c.1 0 .2 0 .3.1.1.1.1.2.1.3v9c0 .1 0 .2-.1.3-.1.1-.2.1-.3.1h-.8zm-2.6-5h2.1v-3.5h-2c-.7 0-1.2.1-1.6.4-.3.2-.5.7-.5 1.3 0 .5.2.9.5 1.3s.8.5 1.5.5zM86.2 790c-.1 0-.2 0-.3-.1-.1-.1-.1-.2-.1-.3v-9c0-.1 0-.2.1-.3.1-.1.2-.1.3-.1h7.5c.1 0 .2 0 .3.1.1.1.1.2.1.3v9c0 .1 0 .2-.1.3-.1.1-.2.1-.3.1h-.9c-.1 0-.2 0-.3-.1-.1-.1-.1-.2-.1-.3v-7.9h-4.9v7.9c0 .1 0 .2-.1.3-.1.1-.2.1-.3.1h-.9zm14.8.2c-1 0-1.8-.2-2.4-.6s-1.1-.9-1.5-1.5c-.3-.7-.5-1.4-.6-2.2v-1.6c0-.8.2-1.6.6-2.2.3-.6.8-1.2 1.5-1.5.6-.4 1.4-.6 2.4-.6.9 0 1.7.2 2.4.6.6.4 1.1.9 1.5 1.5.3.6.5 1.4.6 2.2v1.6c0 .8-.2 1.6-.6 2.2-.3.7-.8 1.2-1.5 1.5s-1.4.6-2.4.6zm0-1.5c.8 0 1.4-.2 1.9-.8.5-.5.7-1.2.8-2.2v-1.4c0-1-.3-1.7-.8-2.2-.5-.5-1.1-.8-1.9-.8-.8 0-1.4.3-1.9.8s-.7 1.2-.8 2.2v1.4c0 1 .3 1.7.8 2.2s1.1.8 1.9.8zm7.3 1.3c-.1 0-.2 0-.3-.1-.1-.1-.1-.2-.1-.3v-9.1c0-.1 0-.2.1-.3s.2-.1.3-.1h1c.2 0 .4.1.5.3l3.2 6 3.2-6c.1-.2.3-.3.5-.3h1c.1 0 .2 0 .3.1.1.1.1.2.1.3v9.1c0 .1 0 .2-.1.3-.1.1-.2.1-.3.1h-.9c-.1 0-.2 0-.3-.1s-.1-.2-.1-.3V782l.7.1-3.1 5.9c-.1.1-.1.2-.2.3-.1.1-.2.2-.4.2h-.5c-.2 0-.3-.1-.4-.2-.1-.1-.2-.2-.2-.3l-3-5.6.6-.1v7.3c0 .1 0 .2-.1.3-.1.1-.2.1-.3.1h-1.2zm16.5.2c-1.3 0-2.4-.4-3.1-1.2-.8-.8-1.2-1.9-1.3-3.3v-1.2c0-.9.3-1.7.6-2.4.4-.7.9-1.2 1.5-1.6.6-.4 1.4-.6 2.3-.6 1 0 1.8.2 2.4.6s1.1 1 1.5 1.7c.3.7.5 1.6.5 2.6v.3c0 .1 0 .2-.1.3-.1.1-.2.1-.3.1h-6.6v.2c0 .5.1 1 .3 1.5.2.5.5.8.9 1.1s.8.4 1.4.4c.5 0 .8-.1 1.1-.2.3-.1.6-.3.7-.5l.4-.4c.1-.2.2-.2.3-.3h1.2c.1 0 .2 0 .3.1.1.1.1.2.1.3 0 .2-.1.4-.3.7-.2.3-.5.5-.8.8-.3.3-.8.5-1.3.7s-1.1.3-1.7.3zm-2.6-5.9h5.2v-.1c0-.6-.1-1.1-.3-1.5s-.5-.8-.9-1.1c-.4-.3-.9-.4-1.4-.4s-1 .1-1.4.4c-.4.3-.7.6-.9 1.1-.2.5-.3 1-.3 1.6zm13.3 5.9c-.9 0-1.7-.2-2.3-.5-.7-.3-1.2-.8-1.5-1.5-.4-.7-.5-1.4-.6-2.3v-1.6c0-.9.2-1.7.6-2.3.4-.7.9-1.2 1.5-1.5.7-.3 1.4-.5 2.3-.5.7 0 1.4.1 1.9.3.5.2 1 .5 1.3.8.3.3.6.7.8 1s.3.7.3 1c0 .1 0 .2-.1.3-.1.1-.2.1-.3.1h-.9c-.1 0-.2 0-.3-.1-.1-.1-.1-.2-.2-.3-.2-.6-.5-1.1-.9-1.3-.4-.3-.9-.4-1.5-.4-.8 0-1.4.2-1.9.7-.5.5-.7 1.2-.8 2.3v1.3c0 1.1.3 1.8.8 2.3.5.5 1.1.7 1.9.7.6 0 1.1-.1 1.5-.4.4-.3.7-.7.9-1.3.1-.1.1-.2.2-.3s.2-.1.3-.1h.9c.1 0 .2 0 .3.1.1.1.1.2.1.3 0 .3-.1.5-.2.8-.1.3-.3.6-.5.8l-.8.8c-.3.2-.7.4-1.2.5s-1 .3-1.6.3zm9.5-.2c-.1 0-.2 0-.3-.1-.1-.1-.1-.2-.1-.3v-7.9h-3.3c-.1 0-.2 0-.3-.1-.1-.1-.1-.2-.1-.3v-.6c0-.1 0-.2.1-.3.1-.1.2-.1.3-.1h8.4c.1 0 .2 0 .3.1.1.1.1.2.1.3v.6c0 .1 0 .2-.1.3s-.2.1-.3.1h-3.3v7.9c0 .1 0 .2-.1.3-.1.1-.2.1-.3.1h-1zm7.1 0c-.1 0-.2 0-.3-.1-.1-.1-.1-.2-.1-.3v-9c0-.1 0-.2.1-.3.1-.1.2-.1.3-.1h.9c.1 0 .2 0 .3.1.1.1.1.2.1.3v8.1l-.5-.5 5.8-7.7.2-.2c.1-.1.2-.1.3-.1h.9c.1 0 .2 0 .3.1.1.1.1.2.1.3v9.1c0 .1 0 .2-.1.3-.1.1-.2.1-.3.1h-.9c-.1 0-.2 0-.3-.1-.1-.1-.1-.2-.1-.3V782h.5l-5.8 7.8-.2.2c-.1.1-.2.1-.3.1h-.9zm14.2 0c-.1 0-.2 0-.3-.1-.1-.1-.1-.2-.1-.3v-7.9h-3.3c-.1 0-.2 0-.3-.1-.1-.1-.1-.2-.1-.3v-.6c0-.1 0-.2.1-.3.1-.1.2-.1.3-.1h8.4c.1 0 .2 0 .3.1.1.1.1.2.1.3v.6c0 .1 0 .2-.1.3s-.2.1-.3.1h-3.3v7.9c0 .1 0 .2-.1.3-.1.1-.2.1-.3.1h-1zm7.1 0c-.1 0-.2 0-.3-.1-.1-.1-.1-.2-.1-.3v-9c0-.1 0-.2.1-.3.1-.1.2-.1.3-.1h.9c.1 0 .2 0 .3.1.1.1.1.2.1.3v2.8h2.1c1.3 0 2.2.3 2.8.9.6.6.9 1.4.9 2.5s-.3 1.9-1 2.5c-.7.5-1.6.8-3 .8h-3.1zm1.4-1.4h2c.8 0 1.3-.1 1.7-.4.4-.3.5-.8.5-1.4 0-.7-.2-1.2-.5-1.5-.3-.3-.9-.5-1.7-.5h-2v3.8zM86.2 813c-.1 0-.2 0-.3-.1-.1-.1-.1-.2-.1-.3v-9c0-.1 0-.2.1-.3.1-.1.2-.1.3-.1h4c1.2 0 2.1.2 2.7.7s.9 1.1.9 1.9c0 .6-.1 1-.3 1.3s-.5.5-.9.7c.5.2.8.5 1.1 1 .2.5.4.9.4 1.4 0 .9-.3 1.6-1 2.1s-1.5.7-2.7.7h-4.2zm1.3-5.7H90c.6 0 1.1-.1 1.5-.4.4-.3.5-.6.5-1.1 0-.5-.2-.8-.5-1-.4-.2-.8-.3-1.5-.3h-2.5v2.8zm0 4.3h2.6c.6 0 1.1-.1 1.5-.4.4-.2.6-.6.6-1.1 0-.5-.2-.9-.5-1.1-.3-.2-.8-.4-1.5-.4h-2.6v3zm14 1.4c-.1 0-.2 0-.3-.1-.1-.1-.1-.2-.1-.3v-9c0-.1 0-.2.1-.3.1-.1.2-.1.3-.1h7.5c.1 0 .2 0 .3.1.1.1.1.2.1.3v9c0 .1 0 .2-.1.3-.1.1-.2.1-.3.1h-.9c-.1 0-.2 0-.3-.1-.1-.1-.1-.2-.1-.3v-7.9h-4.9v7.9c0 .1 0 .2-.1.3-.1.1-.2.1-.3.1h-.9zm10.3 0c-.1 0-.2 0-.3-.1-.1-.1-.1-.2-.1-.3v-.7c0-.3.1-.4.4-.4.4 0 .7-.2 1-.6.3-.4.5-.9.6-1.7.1-.8.2-1.8.2-3.1v-2.4c0-.1 0-.2.1-.3.1-.1.2-.1.3-.1h6c.1 0 .2 0 .3.1.1.1.1.2.1.3v9c0 .1 0 .2-.1.3-.1.1-.2.1-.3.1h-.9c-.1 0-.2 0-.3-.1-.1-.1-.1-.2-.1-.3v-7.9h-3.4v1.6c0 1.2-.1 2.3-.2 3.1-.1.9-.4 1.6-.6 2.1s-.6.9-1.1 1.2-1 .2-1.6.2zm14.3.2c-.6 0-1.2-.1-1.7-.4-.5-.3-.9-.6-1.3-1s-.5-.9-.5-1.5c0-.9.4-1.6 1.1-2.1.7-.5 1.6-.9 2.8-1l2.8-.4v-.6c0-.6-.2-1.1-.5-1.4-.3-.3-.9-.5-1.7-.5-.6 0-1 .1-1.4.3-.4.2-.6.5-.7.9-.1.2-.2.3-.4.3h-.9c-.1 0-.2 0-.3-.1-.1-.1-.1-.2-.1-.3 0-.2.1-.4.2-.7.1-.3.4-.6.7-.8.3-.3.7-.5 1.2-.7.5-.2 1.1-.3 1.7-.3.8 0 1.4.1 1.9.3s.9.5 1.2.8c.3.3.5.7.6 1.1.1.4.2.8.2 1.3v6.2c0 .1 0 .2-.1.3-.1.1-.2.1-.3.1h-.9c-.1 0-.2 0-.3-.1-.1-.1-.1-.2-.1-.3v-.8c-.2.2-.4.5-.7.7-.3.2-.6.4-1 .6s-.9.1-1.5.1zm.4-1.4c.5 0 1-.1 1.4-.3.4-.2.8-.6 1-1 .2-.5.4-1.1.4-1.8v-.5l-2.2.3c-.9.1-1.6.3-2 .6s-.7.7-.7 1.1c0 .4.1.6.3.9s.5.4.8.5c.3.1.6.2 1 .2zm11.3 1.4c-.9 0-1.7-.2-2.3-.5-.7-.3-1.2-.8-1.5-1.5-.4-.7-.5-1.4-.6-2.3v-1.6c0-.9.2-1.7.6-2.3.4-.7.9-1.2 1.5-1.5.7-.3 1.4-.5 2.3-.5.7 0 1.4.1 1.9.3.5.2 1 .5 1.3.8.3.3.6.7.8 1s.3.7.3 1c0 .1 0 .2-.1.3-.1.1-.2.1-.3.1h-.9c-.1 0-.2 0-.3-.1-.1-.1-.1-.2-.2-.3-.2-.6-.5-1.1-.9-1.3-.4-.3-.9-.4-1.5-.4-.8 0-1.4.2-1.9.7-.5.5-.7 1.2-.8 2.3v1.3c0 1.1.3 1.8.8 2.3.5.5 1.1.7 1.9.7.6 0 1.1-.1 1.5-.4.4-.3.7-.7.9-1.3.1-.1.1-.2.2-.3s.2-.1.3-.1h.9c.1 0 .2 0 .3.1.1.1.1.2.1.3 0 .3-.1.5-.2.8-.1.3-.3.6-.5.8l-.8.8c-.3.2-.7.4-1.2.5s-1 .3-1.6.3zm9.5-.2c-.1 0-.2 0-.3-.1-.1-.1-.1-.2-.1-.3v-7.9h-3.3c-.1 0-.2 0-.3-.1-.1-.1-.1-.2-.1-.3v-.6c0-.1 0-.2.1-.3.1-.1.2-.1.3-.1h8.4c.1 0 .2 0 .3.1.1.1.1.2.1.3v.6c0 .1 0 .2-.1.3s-.2.1-.3.1h-3.3v7.9c0 .1 0 .2-.1.3-.1.1-.2.1-.3.1h-1zm7.1 0c-.1 0-.2 0-.3-.1-.1-.1-.1-.2-.1-.3v-9c0-.1 0-.2.1-.3.1-.1.2-.1.3-.1h.9c.1 0 .2 0 .3.1.1.1.1.2.1.3v8.1l-.5-.5 5.8-7.7.2-.2c.1-.1.2-.1.3-.1h.9c.1 0 .2 0 .3.1.1.1.1.2.1.3v9.1c0 .1 0 .2-.1.3-.1.1-.2.1-.3.1h-.9c-.1 0-.2 0-.3-.1-.1-.1-.1-.2-.1-.3V805h.5l-5.8 7.8-.2.2c-.1.1-.2.1-.3.1h-.9zm11.6 0c-.1 0-.2 0-.3-.1-.1-.1-.1-.2-.1-.3v-9c0-.1 0-.2.1-.3.1-.1.2-.1.3-.1h.9c.1 0 .2 0 .3.1.1.1.1.2.1.3v3.6h1.7l2.6-3.8c.1-.1.1-.2.2-.2s.2-.1.3-.1h1c.1 0 .2 0 .3.1s.1.1.1.2v.1s0 .1-.1.1l-2.9 4.2 3.2 4.6c.1.1.1.2.1.2 0 .1 0 .2-.1.2-.1.1-.2.1-.3.1h-1.2c-.1 0-.2 0-.3-.1l-.2-.2-2.8-4h-1.7v3.8c0 .1 0 .2-.1.3-.1.1-.2.1-.3.1h-.8zm13.4.2c-1 0-1.8-.2-2.4-.6-.6-.4-1.1-.9-1.5-1.5-.3-.7-.5-1.4-.6-2.2v-1.6c0-.8.2-1.6.6-2.2.3-.6.8-1.2 1.5-1.5.6-.4 1.4-.6 2.4-.6s1.7.2 2.4.6c.6.4 1.1.9 1.5 1.5.3.6.5 1.4.6 2.2v1.6c0 .8-.2 1.6-.6 2.2-.3.7-.8 1.2-1.5 1.5-.7.4-1.5.6-2.4.6zm0-1.5c.8 0 1.4-.2 1.9-.8s.7-1.2.8-2.2v-1.4c0-1-.3-1.7-.8-2.2s-1.1-.8-1.9-.8c-.8 0-1.4.3-1.9.8s-.7 1.2-.8 2.2v1.4c0 1 .3 1.7.8 2.2s1.1.8 1.9.8zm7.3 1.3c-.1 0-.2 0-.3-.1-.1-.1-.1-.2-.1-.3v-9c0-.1 0-.2.1-.3.1-.1.2-.1.3-.1h4c1.2 0 2.1.2 2.7.7s.9 1.1.9 1.9c0 .6-.1 1-.3 1.3-.2.3-.5.5-.9.7.5.2.8.5 1.1 1 .2.5.4.9.4 1.4 0 .9-.3 1.6-1 2.1s-1.5.7-2.7.7h-4.2zm1.3-5.7h2.5c.6 0 1.1-.1 1.5-.4.4-.3.5-.6.5-1.1 0-.5-.2-.8-.5-1-.4-.2-.8-.3-1.5-.3H188v2.8zm0 4.3h2.6c.6 0 1.1-.1 1.5-.4.4-.2.6-.6.6-1.1 0-.5-.2-.9-.5-1.1-.3-.2-.8-.4-1.5-.4H188v3zm9.3 1.4c-.1 0-.2 0-.3-.1-.1-.1-.1-.2-.1-.3v-9c0-.1 0-.2.1-.3.1-.1.2-.1.3-.1h.9c.1 0 .2 0 .3.1.1.1.1.2.1.3v2.8h2c1.3 0 2.2.3 2.8.9.6.6.9 1.4.9 2.5s-.3 1.9-1 2.5c-.7.5-1.6.8-3 .8h-3zm1.4-1.4h1.8c.8 0 1.3-.1 1.7-.4.4-.3.5-.8.5-1.4 0-.7-.2-1.2-.5-1.5-.3-.3-.9-.5-1.7-.5h-1.8v3.8zm7.5 1.4c-.1 0-.2 0-.3-.1-.1-.1-.1-.2-.1-.3v-9c0-.1 0-.2.1-.3.1-.1.2-.1.3-.1h.9c.1 0 .2 0 .3.1.1.1.1.2.1.3v9c0 .1 0 .2-.1.3-.1.1-.2.1-.3.1h-.9zm4.6 0c-.1 0-.2 0-.3-.1-.1-.1-.1-.2-.1-.3v-9c0-.1 0-.2.1-.3.1-.1.2-.1.3-.1h.9c.1 0 .2 0 .3.1.1.1.1.2.1.3v8.1l-.5-.5 5.8-7.7.2-.2c.1-.1.2-.1.3-.1h.9c.1 0 .2 0 .3.1.1.1.1.2.1.3v9.1c0 .1 0 .2-.1.3-.1.1-.2.1-.3.1h-.9c-.1 0-.2 0-.3-.1-.1-.1-.1-.2-.1-.3V805h.5l-5.8 7.8-.2.2c-.1.1-.2.1-.3.1h-.9zm4-11.2c-.7 0-1.3-.1-1.7-.3-.4-.2-.7-.5-.9-.9-.2-.4-.2-.7-.2-1.2 0-.1 0-.2.1-.3.1-.1.1-.1.3-.1h.6c.1 0 .2 0 .3.1.1.1.1.2.1.3 0 .3.1.6.3.8.2.2.6.4 1.2.4s1-.1 1.2-.4c.2-.2.3-.5.3-.8 0-.1 0-.2.1-.3s.2-.1.3-.1h.7c.1 0 .2 0 .3.1s.1.2.1.3c0 .4-.1.8-.3 1.2-.2.4-.5.7-.9.9-.6.2-1.2.3-1.9.3zM89.4 836.2c-.7 0-1.3-.1-1.9-.3-.5-.2-.9-.4-1.3-.7-.3-.3-.6-.6-.7-1s-.3-.7-.3-1c0-.1 0-.2.1-.3.1-.1.2-.1.3-.1h.9c.1 0 .2 0 .3.1s.1.1.2.3c.2.6.6 1 1 1.3.4.2.9.4 1.5.4.8 0 1.4-.2 1.9-.7.5-.5.7-1.2.8-2.2v-.1h-3.7c-.1 0-.2 0-.3-.1-.1-.1-.1-.2-.1-.3v-.5c0-.1 0-.2.1-.3.1-.1.2-.1.3-.1H92v-.1c0-1-.3-1.8-.8-2.2-.5-.5-1.1-.7-1.9-.7-.6 0-1.1.1-1.5.4-.4.2-.7.7-1 1.3-.1.1-.1.2-.2.3-.1.1-.2.1-.3.1h-.8c-.1 0-.2 0-.3-.1-.1-.1-.1-.2-.1-.3 0-.3.1-.7.3-1s.4-.7.7-1c.3-.3.7-.5 1.3-.7.5-.2 1.1-.3 1.9-.3 1.4 0 2.5.4 3.2 1.1.8.8 1.2 1.8 1.2 3.2v1.6c0 1.4-.4 2.4-1.2 3.2-.6.4-1.7.8-3.1.8zm6.2-.2c-.1 0-.2 0-.3-.1-.1-.1-.1-.2-.1-.3v-.7c0-.3.1-.4.4-.4.4 0 .7-.2 1-.6.3-.4.5-.9.6-1.7.1-.8.2-1.8.2-3.1v-2.4c0-.1 0-.2.1-.3.1-.1.2-.1.3-.1h6c.1 0 .2 0 .3.1.1.1.1.2.1.3v9c0 .1 0 .2-.1.3-.1.1-.2.1-.3.1h-.9c-.1 0-.2 0-.3-.1-.1-.1-.1-.2-.1-.3v-7.9h-3.4v1.6c0 1.2-.1 2.3-.2 3.1-.1.9-.4 1.6-.6 2.1s-.6.9-1.1 1.2-1 .2-1.6.2zm15.5.2c-1.3 0-2.4-.4-3.1-1.2-.8-.8-1.2-1.9-1.3-3.3v-1.2c.1-.9.3-1.7.6-2.4s.9-1.2 1.5-1.6c.6-.4 1.4-.6 2.2-.6 1 0 1.8.2 2.4.6s1.1 1 1.5 1.7c.3.7.5 1.6.5 2.6v.3c0 .1 0 .2-.1.3-.1.1-.2.1-.3.1h-6.6v.2c0 .5.1 1 .3 1.5.2.5.5.8.9 1.1s.8.4 1.4.4c.5 0 .8-.1 1.1-.2s.6-.3.7-.5l.4-.4c.1-.2.2-.2.3-.3h1.2c.1 0 .2 0 .3.1.1.1.1.2.1.3 0 .2-.1.4-.3.7s-.5.5-.8.8c-.3.3-.8.5-1.3.7-.4.2-1 .3-1.6.3zm-2.6-5.9h5.2v-.1c0-.6-.1-1.1-.3-1.5s-.5-.8-.9-1.1c-.4-.3-.9-.4-1.4-.4s-1 .1-1.4.4c-.4.3-.7.6-.9 1.1s-.3 1-.3 1.6zm12.3 5.7c-.1 0-.2 0-.3-.1-.1-.1-.1-.2-.1-.3v-7.9H117c-.1 0-.2 0-.3-.1-.1-.1-.1-.2-.1-.3v-.6c0-.1 0-.2.1-.3.1-.1.2-.1.3-.1h8.4c.1 0 .2 0 .3.1.1.1.1.2.1.3v.6c0 .1 0 .2-.1.3s-.2.1-.3.1h-3.3v7.9c0 .1 0 .2-.1.3-.1.1-.2.1-.3.1h-.9zm7.1 3.6c-.1 0-.2 0-.3-.1-.1-.1-.1-.2-.1-.3v-12.6c0-.1 0-.2.1-.3.1-.1.2-.1.3-.1h.9c.1 0 .2 0 .3.1.1.1.1.2.1.3v.8c.3-.4.7-.8 1.2-1 .5-.3 1.1-.4 1.9-.4.7 0 1.3.1 1.8.4.5.2.9.6 1.2 1 .3.4.6.9.7 1.4.2.5.3 1.1.3 1.7v1.2c0 .6-.1 1.2-.3 1.7-.2.5-.4 1-.7 1.4-.3.4-.7.7-1.2 1-.5.2-1.1.4-1.8.4s-1.4-.1-1.9-.4c-.5-.3-.9-.6-1.2-1v4.4c0 .1 0 .2-.1.3-.1.1-.2.1-.3.1h-.9zm4.1-5c.7 0 1.2-.1 1.5-.4.4-.3.6-.7.8-1.1.2-.5.3-1 .3-1.5v-1.1c0-.5-.1-1-.3-1.5-.2-.5-.4-.8-.8-1.1-.4-.3-.9-.4-1.5-.4s-1.1.1-1.5.4c-.4.3-.7.7-.9 1.1s-.3.9-.3 1.4v1.4c0 .4.1.9.3 1.3s.5.8.9 1.1c.4.3.9.4 1.5.4zm10.8 1.6c-1 0-1.8-.2-2.4-.6-.6-.4-1.1-.9-1.5-1.5-.3-.7-.5-1.4-.6-2.2v-1.6c0-.8.2-1.6.6-2.2.3-.6.8-1.2 1.5-1.5.6-.4 1.4-.6 2.4-.6s1.7.2 2.4.6c.6.4 1.1.9 1.5 1.5.3.6.5 1.4.6 2.2v1.6c0 .8-.2 1.6-.6 2.2-.3.7-.8 1.2-1.5 1.5-.6.4-1.4.6-2.4.6zm0-1.5c.8 0 1.4-.2 1.9-.8s.7-1.2.8-2.2v-1.4c0-1-.3-1.7-.8-2.2s-1.1-.8-1.9-.8c-.8 0-1.4.3-1.9.8s-.7 1.2-.8 2.2v1.4c0 1 .3 1.7.8 2.2s1.2.8 1.9.8zm7.3 1.3c-.1 0-.2 0-.3-.1-.1-.1-.1-.2-.1-.3v-9.1c0-.1 0-.2.1-.3s.2-.1.3-.1h1c.2 0 .4.1.5.3l3.2 6 3.2-6c.1-.2.3-.3.5-.3h1c.1 0 .2 0 .3.1.1.1.1.2.1.3v9.1c0 .1 0 .2-.1.3-.1.1-.2.1-.3.1h-.9c-.1 0-.2 0-.3-.1s-.1-.2-.1-.3V828l.7.1-3.1 5.9c-.1.1-.1.2-.2.3-.1.1-.2.2-.4.2h-.5c-.2 0-.3-.1-.4-.2-.1-.1-.2-.2-.2-.3l-3-5.6.6-.1v7.3c0 .1 0 .2-.1.3-.1.1-.2.1-.3.1h-1.2zm16.6.2c-1 0-1.8-.2-2.4-.6-.6-.4-1.1-.9-1.5-1.5-.3-.7-.5-1.4-.6-2.2v-1.6c0-.8.2-1.6.6-2.2.3-.6.8-1.2 1.5-1.5.6-.4 1.4-.6 2.4-.6s1.7.2 2.4.6c.6.4 1.1.9 1.5 1.5.3.6.5 1.4.6 2.2v1.6c0 .8-.2 1.6-.6 2.2-.3.7-.8 1.2-1.5 1.5-.6.4-1.4.6-2.4.6zm0-1.5c.8 0 1.4-.2 1.9-.8s.7-1.2.8-2.2v-1.4c0-1-.3-1.7-.8-2.2s-1.1-.8-1.9-.8c-.8 0-1.4.3-1.9.8s-.7 1.2-.8 2.2v1.4c0 1 .3 1.7.8 2.2s1.1.8 1.9.8zm7.3 1.3c-.1 0-.2 0-.3-.1-.1-.1-.1-.2-.1-.3v-9c0-.1 0-.2.1-.3.1-.1.2-.1.3-.1h.9c.1 0 .2 0 .3.1.1.1.1.2.1.3v3.6h5.2v-3.6c0-.1 0-.2.1-.3.1-.1.2-.1.3-.1h.9c.1 0 .2 0 .3.1.1.1.1.2.1.3v9c0 .1 0 .2-.1.3-.1.1-.2.1-.3.1h-.8c-.1 0-.2 0-.3-.1-.1-.1-.1-.2-.1-.3v-3.8h-5.2v3.8c0 .1 0 .2-.1.3-.1.1-.2.1-.3.1h-1zm14.2 0c-.1 0-.2 0-.3-.1-.1-.1-.1-.2-.1-.3v-7.9h-3.3c-.1 0-.2 0-.3-.1-.1-.1-.1-.2-.1-.3v-.6c0-.1 0-.2.1-.3.1-.1.2-.1.3-.1h8.4c.1 0 .2 0 .3.1.1.1.1.2.1.3v.6c0 .1 0 .2-.1.3s-.2.1-.3.1h-3.3v7.9c0 .1 0 .2-.1.3-.1.1-.2.1-.3.1h-1zm9.4.2c-.6 0-1.2-.1-1.7-.4-.5-.3-.9-.6-1.3-1s-.5-.9-.5-1.5c0-.9.4-1.6 1.1-2.1.7-.5 1.6-.9 2.8-1l2.8-.4v-.6c0-.6-.2-1.1-.5-1.4-.3-.3-.9-.5-1.7-.5-.6 0-1 .1-1.4.3-.4.2-.6.5-.7.9-.1.2-.2.3-.4.3h-.9c-.1 0-.2 0-.3-.1-.1-.1-.1-.2-.1-.3 0-.2.1-.4.2-.7.1-.3.4-.6.7-.8.3-.3.7-.5 1.2-.7.5-.2 1.1-.3 1.7-.3.8 0 1.4.1 1.9.3s.9.5 1.2.8c.3.3.5.7.6 1.1.1.4.2.8.2 1.3v6.2c0 .1 0 .2-.1.3-.1.1-.2.1-.3.1h-.9c-.1 0-.2 0-.3-.1-.1-.1-.1-.2-.1-.3v-.8c-.2.2-.4.5-.7.7-.3.2-.6.4-1 .6s-.9.1-1.5.1zm.4-1.4c.5 0 1-.1 1.4-.3.4-.2.8-.6 1-1 .2-.5.4-1.1.4-1.8v-.5l-2.2.3c-.9.1-1.6.3-2 .6s-.7.7-.7 1.1c0 .4.1.6.3.9s.5.4.8.5c.3.1.7.2 1 .2zm6.8 1.2c-.1 0-.2 0-.3-.1-.1-.1-.1-.1-.1-.2s0-.1.1-.2l3.2-4.6-2.9-4.2s0-.1-.1-.1v-.1c0-.1 0-.2.1-.2s.2-.1.3-.1h1c.1 0 .2 0 .3.1l.2.2 2.6 3.8h1.4v-3.6c0-.1 0-.2.1-.3.1-.1.2-.1.3-.1h.9c.1 0 .2 0 .3.1.1.1.1.2.1.3v3.6h1.4l2.6-3.8c.1-.1.1-.2.2-.2.1-.1.2-.1.3-.1h1c.1 0 .2 0 .3.1s.1.1.1.2v.1s0 .1-.1.1l-2.8 4.2 3.2 4.6c0 .1.1.2.1.2 0 .1 0 .2-.1.2s-.2.1-.3.1h-1.1c-.1 0-.2 0-.3-.1l-.2-.2-2.8-4h-1.4v3.8c0 .1 0 .2-.1.3-.1.1-.2.1-.3.1h-.9c-.1 0-.2 0-.3-.1-.1-.1-.1-.2-.1-.3v-3.8h-1.4l-2.8 4-.2.2c-.1.1-.2.1-.3.1h-1.2zm16.2 0c-.1 0-.2 0-.3-.1-.1-.1-.1-.2-.1-.3v-9c0-.1 0-.2.1-.3.1-.1.2-.1.3-.1h.9c.1 0 .2 0 .3.1.1.1.1.2.1.3v3.6h5.2v-3.6c0-.1 0-.2.1-.3.1-.1.2-.1.3-.1h.9c.1 0 .2 0 .3.1.1.1.1.2.1.3v9c0 .1 0 .2-.1.3-.1.1-.2.1-.3.1h-.9c-.1 0-.2 0-.3-.1-.1-.1-.1-.2-.1-.3v-3.8h-5.2v3.8c0 .1 0 .2-.1.3-.1.1-.2.1-.3.1h-.9zm11.5 0c-.1 0-.2 0-.3-.1-.1-.1-.1-.2-.1-.3v-9c0-.1 0-.2.1-.3.1-.1.2-.1.3-.1h.9c.1 0 .2 0 .3.1.1.1.1.2.1.3v2.8h2c1.3 0 2.2.3 2.8.9.6.6.9 1.4.9 2.5s-.3 1.9-1 2.5c-.7.5-1.6.8-3 .8h-3zm1.4-1.4h1.8c.8 0 1.3-.1 1.7-.4.4-.3.5-.8.5-1.4 0-.7-.2-1.2-.5-1.5-.3-.3-.9-.5-1.7-.5h-1.8v3.8zm7.5 1.4c-.1 0-.2 0-.3-.1-.1-.1-.1-.2-.1-.3v-9c0-.1 0-.2.1-.3.1-.1.2-.1.3-.1h.9c.1 0 .2 0 .3.1.1.1.1.2.1.3v9c0 .1 0 .2-.1.3-.1.1-.2.1-.3.1h-.9zm4.6 0c-.1 0-.2 0-.3-.1-.1-.1-.1-.2-.1-.3v-9c0-.1 0-.2.1-.3.1-.1.2-.1.3-.1h.9c.1 0 .2 0 .3.1.1.1.1.2.1.3v8.1l-.5-.5 5.8-7.7.2-.2c.1-.1.2-.1.3-.1h.9c.1 0 .2 0 .3.1.1.1.1.2.1.3v9.1c0 .1 0 .2-.1.3-.1.1-.2.1-.3.1h-1c-.1 0-.2 0-.3-.1-.1-.1-.1-.2-.1-.3V828h.5l-5.8 7.8-.2.2c-.1.1-.2.1-.3.1h-.8zm4-11.2c-.7 0-1.3-.1-1.7-.3-.4-.2-.7-.5-.9-.9-.2-.4-.2-.7-.2-1.2 0-.1 0-.2.1-.3.1-.1.1-.1.3-.1h.6c.1 0 .2 0 .3.1.1.1.1.2.1.3 0 .3.1.6.3.8.2.2.6.4 1.2.4s1-.1 1.2-.4c.2-.2.3-.5.3-.8 0-.1 0-.2.1-.3s.2-.1.3-.1h.7c.1 0 .2 0 .3.1s.1.2.1.3c0 .4-.1.8-.3 1.2-.2.4-.5.7-.9.9-.6.2-1.2.3-1.9.3zM89.9 859.2c-1 0-1.8-.2-2.4-.6-.7-.4-1.1-.9-1.5-1.6-.3-.7-.5-1.5-.5-2.4v-2.2c0-1.2.1-2.1.3-2.9.2-.8.5-1.4.9-1.9s.9-.9 1.5-1.2c.6-.3 1.3-.6 2.1-.8.8-.2 1.7-.5 2.8-.8.1 0 .2 0 .3.1.1.1.2.2.2.3l.2.8v.3c-.1.1-.1.1-.3.2-.9.2-1.8.4-2.5.6-.7.2-1.3.4-1.8.6s-.9.5-1.1.9c-.3.4-.5.9-.6 1.5-.1.6-.2 1.4-.1 2.3l-.4-.2c.1-.5.2-.9.6-1.3.3-.4.8-.7 1.3-.9.5-.2 1-.4 1.6-.4.9 0 1.6.2 2.2.6.6.4 1.1.9 1.4 1.5.3.6.5 1.4.5 2.2v1.1c0 .8-.2 1.6-.6 2.2-.3.6-.8 1.1-1.5 1.5s-1.6.5-2.6.5zm0-1.4c.8 0 1.4-.2 1.9-.8.5-.5.7-1.2.7-2.2v-.9c0-1-.3-1.7-.7-2.2-.5-.5-1-.7-1.7-.7-.8 0-1.5.2-2 .7s-.8 1.2-.8 2.2v.9c0 .9.3 1.7.8 2.2.4.5 1 .8 1.8.8zm10.9 1.4c-1 0-1.8-.2-2.4-.6s-1.1-.9-1.5-1.5c-.3-.7-.5-1.4-.6-2.2v-1.6c0-.8.2-1.6.6-2.2.3-.6.8-1.2 1.5-1.5.6-.4 1.4-.6 2.4-.6.9 0 1.7.2 2.4.6.6.4 1.1.9 1.5 1.5.3.6.5 1.4.6 2.2v1.6c0 .8-.2 1.6-.6 2.2-.3.7-.8 1.2-1.5 1.5s-1.4.6-2.4.6zm0-1.5c.8 0 1.4-.2 1.9-.8.5-.5.7-1.2.8-2.2v-1.4c0-1-.3-1.7-.8-2.2-.5-.5-1.1-.8-1.9-.8-.8 0-1.4.3-1.9.8s-.7 1.2-.8 2.2v1.4c0 1 .3 1.7.8 2.2s1.1.8 1.9.8zm7.3 1.3c-.1 0-.2 0-.3-.1-.1-.1-.1-.2-.1-.3v-9c0-.1 0-.2.1-.3.1-.1.2-.1.3-.1h.9c.1 0 .2 0 .3.1.1.1.1.2.1.3v3.6h1.7l2.6-3.8c.1-.1.1-.2.2-.2s.2-.1.3-.1h1c.1 0 .2 0 .3.1s.1.1.1.2v.1s0 .1-.1.1l-2.8 4.2 3.2 4.6c.1.1.1.2.1.2 0 .1 0 .2-.1.2-.1.1-.2.1-.3.1h-1.2c-.1 0-.2 0-.3-.1l-.2-.2-2.8-4h-1.7v3.8c0 .1 0 .2-.1.3-.1.1-.2.1-.3.1h-.9zm13.3.2c-.9 0-1.7-.2-2.3-.5-.7-.3-1.2-.8-1.5-1.5-.4-.7-.5-1.4-.6-2.3v-1.6c0-.9.2-1.7.6-2.3.4-.7.9-1.2 1.5-1.5.7-.3 1.4-.5 2.3-.5.7 0 1.4.1 1.9.3.5.2 1 .5 1.3.8.3.3.6.7.8 1s.3.7.3 1c0 .1 0 .2-.1.3-.1.1-.2.1-.3.1h-.9c-.1 0-.2 0-.3-.1-.1-.1-.1-.2-.2-.3-.2-.6-.5-1.1-.9-1.3-.4-.3-.9-.4-1.5-.4-.8 0-1.4.2-1.9.7-.5.5-.7 1.2-.8 2.3v1.3c0 1.1.3 1.8.8 2.3.5.5 1.1.7 1.9.7.6 0 1.1-.1 1.5-.4.4-.3.7-.7.9-1.3.1-.1.1-.2.2-.3s.2-.1.3-.1h.9c.1 0 .2 0 .3.1.1.1.1.2.1.3 0 .3-.1.5-.2.8-.1.3-.3.6-.5.8l-.8.8c-.3.2-.7.4-1.2.5s-1 .3-1.6.3zm6.8-.2c-.1 0-.2 0-.3-.1-.1-.1-.1-.2-.1-.3v-1.4c0-.1 0-.2.1-.3.1-.1.2-.1.3-.1h1.4c.1 0 .2 0 .3.1.1.1.1.2.1.3v1.4c0 .1 0 .2-.1.3-.1.1-.2.1-.3.1h-1.4zm14.2.2c-1.1 0-2-.2-2.8-.6-.8-.4-1.4-1-1.8-1.7s-.7-1.8-.7-2.9v-3.2c0-1.2.3-2.1.7-2.9.4-.8 1-1.4 1.8-1.7.8-.4 1.7-.6 2.7-.6 1 0 1.9.2 2.7.6.8.4 1.4 1 1.8 1.7.4.8.7 1.8.7 2.9v3.2c0 1.2-.3 2.2-.7 2.9-.4.8-1 1.4-1.8 1.7-.6.4-1.5.6-2.6.6zm0-1.6c1 0 1.8-.3 2.4-.9s.9-1.5 1-2.8v-3c0-.9-.2-1.6-.5-2.1s-.7-.9-1.2-1.2c-.5-.3-1.1-.4-1.7-.4-.6 0-1.2.1-1.7.4-.5.3-.9.7-1.2 1.2s-.5 1.3-.5 2.1v3c.1 1.3.4 2.2 1 2.8.6.6 1.4.9 2.4.9zm12 1.6c-1 0-1.8-.2-2.4-.6-.7-.4-1.1-.9-1.5-1.6-.3-.7-.5-1.5-.5-2.4v-2.2c0-1.2.1-2.1.3-2.9.2-.8.5-1.4.9-1.9s.9-.9 1.5-1.2c.6-.3 1.3-.6 2.1-.8s1.7-.5 2.8-.8c.1 0 .2 0 .3.1.1.1.2.2.2.3l.2.8v.3c-.1.1-.1.1-.3.2-1 .2-1.8.4-2.5.6-.7.2-1.3.4-1.8.6s-.9.5-1.1.9c-.3.4-.5.9-.6 1.5-.1.6-.2 1.4-.1 2.3l-.4-.2c.1-.5.2-.9.6-1.3s.8-.7 1.3-.9 1-.4 1.6-.4c.9 0 1.6.2 2.2.6.6.4 1.1.9 1.4 1.5.3.6.5 1.4.5 2.2v1.1c0 .8-.2 1.6-.6 2.2-.3.6-.8 1.1-1.5 1.5-.9.3-1.7.5-2.6.5zm0-1.4c.8 0 1.4-.2 1.9-.8.5-.5.7-1.2.7-2.2v-.9c0-1-.3-1.7-.7-2.2-.5-.5-1-.7-1.7-.7-.8 0-1.5.2-2 .7-.5.5-.8 1.2-.8 2.2v.9c0 .9.3 1.7.8 2.2.4.5 1 .8 1.8.8zm10.9 1.4c-1 0-1.8-.2-2.4-.6-.6-.4-1.1-.9-1.5-1.5-.3-.7-.5-1.4-.6-2.2v-1.6c0-.8.2-1.6.6-2.2.3-.6.8-1.2 1.5-1.5.6-.4 1.4-.6 2.4-.6s1.7.2 2.4.6c.6.4 1.1.9 1.5 1.5.3.6.5 1.4.6 2.2v1.6c0 .8-.2 1.6-.6 2.2-.3.7-.8 1.2-1.5 1.5-.6.4-1.5.6-2.4.6zm0-1.5c.8 0 1.4-.2 1.9-.8s.7-1.2.8-2.2v-1.4c0-1-.3-1.7-.8-2.2s-1.1-.8-1.9-.8c-.8 0-1.4.3-1.9.8s-.7 1.2-.8 2.2v1.4c0 1 .3 1.7.8 2.2s1.1.8 1.9.8zm7.3 4.9c-.1 0-.2 0-.3-.1-.1-.1-.1-.2-.1-.3v-12.6c0-.1 0-.2.1-.3.1-.1.2-.1.3-.1h.9c.1 0 .2 0 .3.1.1.1.1.2.1.3v.8c.3-.4.7-.8 1.2-1 .5-.3 1.1-.4 1.9-.4.7 0 1.3.1 1.8.4.5.2.9.6 1.2 1 .3.4.6.9.7 1.4.2.5.3 1.1.3 1.7v1.2c0 .6-.1 1.2-.3 1.7-.2.5-.4 1-.7 1.4-.3.4-.7.7-1.2 1-.5.2-1.1.4-1.8.4s-1.4-.1-1.9-.4c-.5-.3-.9-.6-1.2-1v4.4c0 .1 0 .2-.1.3-.1.1-.2.1-.3.1h-.9zm4-5c.7 0 1.2-.1 1.5-.4.4-.3.6-.7.8-1.1.2-.5.3-1 .3-1.5v-1.1c0-.5-.1-1-.3-1.5-.2-.5-.4-.8-.8-1.1-.4-.3-.9-.4-1.5-.4s-1.1.1-1.5.4c-.4.3-.7.7-.9 1.1s-.3.9-.3 1.4v1.4c0 .4.1.9.3 1.3s.5.8.9 1.1c.4.3.9.4 1.5.4zm9.6 1.1l-3.8-8.9c-.1-.2-.1-.3-.1-.3 0-.1.1-.2.1-.3.1-.1.2-.1.3-.1h.9c.1 0 .2 0 .3.1l.2.2 3.2 7.5-1.1 1.8zm-2.7 3.9c-.1 0-.2 0-.3-.1-.1-.1-.1-.2-.1-.3v-.6c0-.1 0-.2.1-.3.1-.1.2-.1.3-.1h.5c.3 0 .5-.1.7-.2.2-.1.3-.3.5-.6s.3-.6.5-1.1l4.1-9.8c0-.1.1-.2.2-.2.1-.1.2-.1.3-.1h.9c.1 0 .2 0 .3.1.1.1.1.2.1.3v.1s0 .1-.1.2l-3.6 8.5c-.2.5-.4.9-.6 1.4-.2.5-.5 1-.8 1.4s-.6.8-1 1c-.4.3-.8.4-1.3.4h-.7zm9.4-1.5c-.1 0-.2 0-.3-.1-.1-.1-.1-.2-.1-.3V858c0-.1 0-.2.1-.3s.2-.1.3-.1h.1c.3 0 .6-.2.9-.6.2-.4.4-1 .6-1.8.1-.8.2-1.9.2-3.1v-2.4c0-.1 0-.2.1-.3.1-.1.2-.1.3-.1h6.1c.1 0 .2 0 .3.1.1.1.1.2.1.3v7.9h.9c.1 0 .2 0 .3.1.1.1.1.2.1.3v2.8c0 .1 0 .2-.1.3-.1.1-.2.1-.3.1h-.9c-.1 0-.2 0-.3-.1-.1-.1-.1-.2-.1-.3V859h-6.9v1.7c0 .1 0 .2-.1.3-.1.1-.2.1-.3.1h-1zm2.4-3.6h4.5v-6.8h-3.4v1.6c0 1.3-.1 2.4-.3 3.3-.2.7-.5 1.4-.8 1.9zm13.6 1.7c-1 0-1.8-.2-2.4-.6-.6-.4-1.1-.9-1.5-1.5-.3-.7-.5-1.4-.6-2.2v-1.6c0-.8.2-1.6.6-2.2.3-.6.8-1.2 1.5-1.5.6-.4 1.4-.6 2.4-.6s1.7.2 2.4.6c.6.4 1.1.9 1.5 1.5.3.6.5 1.4.6 2.2v1.6c0 .8-.2 1.6-.6 2.2-.3.7-.8 1.2-1.5 1.5-.6.4-1.4.6-2.4.6zm0-1.5c.8 0 1.4-.2 1.9-.8s.7-1.2.8-2.2v-1.4c0-1-.3-1.7-.8-2.2s-1.1-.8-1.9-.8c-.8 0-1.4.3-1.9.8s-.7 1.2-.8 2.2v1.4c0 1 .3 1.7.8 2.2s1.2.8 1.9.8zm7.3 1.3c-.1 0-.2 0-.3-.1-.1-.1-.1-.2-.1-.3v-9c0-.1 0-.2.1-.3.1-.1.2-.1.3-.1h4c1.2 0 2.1.2 2.7.7s.9 1.1.9 1.9c0 .6-.1 1-.3 1.3-.2.3-.5.5-.9.7.5.2.8.5 1.1 1 .2.5.4.9.4 1.4 0 .9-.3 1.6-1 2.1s-1.5.7-2.7.7h-4.2zm1.4-5.7h2.5c.6 0 1.1-.1 1.5-.4.4-.3.5-.6.5-1.1 0-.5-.2-.8-.5-1-.4-.2-.8-.3-1.5-.3h-2.5v2.8zm0 4.3h2.6c.6 0 1.1-.1 1.5-.4.4-.2.6-.6.6-1.1 0-.5-.2-.9-.5-1.1-.3-.2-.8-.4-1.5-.4h-2.6v3zm11.6 1.6c-.6 0-1.2-.1-1.7-.4-.5-.3-.9-.6-1.3-1s-.5-.9-.5-1.5c0-.9.4-1.6 1.1-2.1.7-.5 1.6-.9 2.8-1l2.8-.4v-.6c0-.6-.2-1.1-.5-1.4-.3-.3-.9-.5-1.7-.5-.6 0-1 .1-1.4.3-.4.2-.6.5-.7.9-.1.2-.2.3-.4.3h-.9c-.1 0-.2 0-.3-.1-.1-.1-.1-.2-.1-.3 0-.2.1-.4.2-.7.1-.3.4-.6.7-.8.3-.3.7-.5 1.2-.7.5-.2 1.1-.3 1.7-.3.8 0 1.4.1 1.9.3s.9.5 1.2.8c.3.3.5.7.6 1.1.1.4.2.8.2 1.3v6.2c0 .1 0 .2-.1.3-.1.1-.2.1-.3.1h-.9c-.1 0-.2 0-.3-.1-.1-.1-.1-.2-.1-.3v-.8c-.2.2-.4.5-.7.7-.3.2-.6.4-1 .6s-.9.1-1.5.1zm.4-1.4c.5 0 1-.1 1.4-.3.4-.2.8-.6 1-1 .2-.5.4-1.1.4-1.8v-.5l-2.2.3c-.9.1-1.6.3-2 .6s-.7.7-.7 1.1c0 .4.1.6.3.9s.5.4.8.5c.3.1.7.2 1 .2zm7.8 1.2c-.1 0-.2 0-.3-.1-.1-.1-.1-.2-.1-.3v-9c0-.1 0-.2.1-.3.1-.1.2-.1.3-.1h.9c.1 0 .2 0 .3.1.1.1.1.2.1.3v3.6h5.2v-3.6c0-.1 0-.2.1-.3.1-.1.2-.1.3-.1h.9c.1 0 .2 0 .3.1.1.1.1.2.1.3v9c0 .1 0 .2-.1.3-.1.1-.2.1-.3.1h-.9c-.1 0-.2 0-.3-.1-.1-.1-.1-.2-.1-.3v-3.8h-5.2v3.8c0 .1 0 .2-.1.3-.1.1-.2.1-.3.1h-.9zm11.5 0c-.1 0-.2 0-.3-.1-.1-.1-.1-.2-.1-.3v-9c0-.1 0-.2.1-.3.1-.1.2-.1.3-.1h.9c.1 0 .2 0 .3.1.1.1.1.2.1.3v8.1l-.5-.5 5.8-7.7.2-.2c.1-.1.2-.1.3-.1h.9c.1 0 .2 0 .3.1.1.1.1.2.1.3v9.1c0 .1 0 .2-.1.3-.1.1-.2.1-.3.1h-.9c-.1 0-.2 0-.3-.1-.1-.1-.1-.2-.1-.3V851h.5l-5.8 7.8-.2.2c-.1.1-.2.1-.3.1h-.9zm15.1.2c-1.3 0-2.4-.4-3.1-1.2-.8-.8-1.2-1.9-1.3-3.3v-1.2c0-.9.3-1.7.6-2.4.4-.7.9-1.2 1.5-1.6.6-.4 1.4-.6 2.3-.6 1 0 1.8.2 2.4.6s1.1 1 1.5 1.7c.3.7.5 1.6.5 2.6v.3c0 .1 0 .2-.1.3-.1.1-.2.1-.3.1h-6.6v.2c0 .5.1 1 .3 1.5.2.5.5.8.9 1.1s.8.4 1.4.4c.5 0 .8-.1 1.1-.2.3-.1.6-.3.7-.5l.4-.4c.1-.2.2-.2.3-.3h1.2c.1 0 .2 0 .3.1.1.1.1.2.1.3 0 .2-.1.4-.3.7-.2.3-.5.5-.8.8-.3.3-.8.5-1.3.7s-1 .3-1.7.3zm-2.6-5.9h5.2v-.1c0-.6-.1-1.1-.3-1.5s-.5-.8-.9-1.1c-.4-.3-.9-.4-1.4-.4s-1 .1-1.4.4c-.4.3-.7.6-.9 1.1-.2.5-.3 1-.3 1.6zM85.2 884.1c-.1 0-.2 0-.3-.1-.1-.1-.1-.2-.1-.3V881c0-.1 0-.2.1-.3.1-.1.2-.1.3-.1h.1c.3 0 .6-.2.9-.6.2-.4.4-1 .6-1.8.1-.8.2-1.9.2-3.1v-2.4c0-.1 0-.2.1-.3.1-.1.2-.1.3-.1h6.1c.1 0 .2 0 .3.1.1.1.1.2.1.3v7.9h.9c.1 0 .2 0 .3.1.1.1.1.2.1.3v2.8c0 .1 0 .2-.1.3-.1.1-.2.1-.3.1h-.9c-.1 0-.2 0-.3-.1-.1-.1-.1-.2-.1-.3V882h-6.9v1.7c0 .1 0 .2-.1.3-.1.1-.2.1-.3.1h-1zm2.3-3.6H92v-6.8h-3.4v1.6c0 1.3-.1 2.4-.3 3.3-.2.7-.4 1.4-.8 1.9zm13.7 1.7c-1 0-1.8-.2-2.4-.6s-1.1-.9-1.5-1.5c-.3-.7-.5-1.4-.6-2.2v-1.6c0-.8.2-1.6.6-2.2.3-.6.8-1.2 1.5-1.5.6-.4 1.4-.6 2.4-.6.9 0 1.7.2 2.4.6.6.4 1.1.9 1.5 1.5.3.6.5 1.4.6 2.2v1.6c0 .8-.2 1.6-.6 2.2-.3.7-.8 1.2-1.5 1.5s-1.5.6-2.4.6zm0-1.5c.8 0 1.4-.2 1.9-.8.5-.5.7-1.2.8-2.2v-1.4c0-1-.3-1.7-.8-2.2-.5-.5-1.1-.8-1.9-.8-.8 0-1.4.3-1.9.8s-.7 1.2-.8 2.2v1.4c0 1 .3 1.7.8 2.2s1.1.8 1.9.8zm6.2 1.3c-.1 0-.2 0-.3-.1-.1-.1-.1-.2-.1-.3v-.7c0-.3.1-.4.4-.4.4 0 .7-.2 1-.6.3-.4.5-.9.6-1.7.1-.8.2-1.8.2-3.1v-2.4c0-.1 0-.2.1-.3.1-.1.2-.1.3-.1h6c.1 0 .2 0 .3.1.1.1.1.2.1.3v9c0 .1 0 .2-.1.3-.1.1-.2.1-.3.1h-.9c-.1 0-.2 0-.3-.1-.1-.1-.1-.2-.1-.3v-7.9h-3.4v1.6c0 1.2-.1 2.3-.2 3.1-.1.9-.4 1.6-.6 2.1s-.6.9-1.1 1.2-1 .2-1.6.2zm10.9 0c-.1 0-.2 0-.3-.1-.1-.1-.1-.1-.1-.2s0-.1.1-.2l3.2-4.6-2.9-4.2s0-.1-.1-.1v-.1c0-.1 0-.2.1-.2s.2-.1.3-.1h1c.1 0 .2 0 .3.1l.2.2 2.6 3.8h1.4v-3.6c0-.1 0-.2.1-.3.1-.1.2-.1.3-.1h.9c.1 0 .2 0 .3.1.1.1.1.2.1.3v3.6h1.4l2.6-3.8c.1-.1.1-.2.2-.2.1-.1.2-.1.3-.1h1c.1 0 .2 0 .3.1s.1.1.1.2v.1s0 .1-.1.1l-2.8 4.2 3.2 4.6c0 .1.1.2.1.2 0 .1 0 .2-.1.2s-.2.1-.3.1h-1.1c-.1 0-.2 0-.3-.1l-.2-.2-2.8-4H126v3.8c0 .1 0 .2-.1.3-.1.1-.2.1-.3.1h-.9c-.1 0-.2 0-.3-.1-.1-.1-.1-.2-.1-.3v-3.8h-1.4l-2.8 4-.2.2c-.1.1-.2.1-.3.1h-1.3zm16.2 0c-.1 0-.2 0-.3-.1-.1-.1-.1-.2-.1-.3v-9c0-.1 0-.2.1-.3.1-.1.2-.1.3-.1h.9c.1 0 .2 0 .3.1.1.1.1.2.1.3v3.6h5.2v-3.6c0-.1 0-.2.1-.3.1-.1.2-.1.3-.1h.9c.1 0 .2 0 .3.1.1.1.1.2.1.3v9c0 .1 0 .2-.1.3-.1.1-.2.1-.3.1h-.9c-.1 0-.2 0-.3-.1-.1-.1-.1-.2-.1-.3v-3.8h-5.2v3.8c0 .1 0 .2-.1.3-.1.1-.2.1-.3.1h-.9zm15.2.2c-1 0-1.8-.2-2.4-.6-.6-.4-1.1-.9-1.5-1.5-.3-.7-.5-1.4-.6-2.2v-1.6c0-.8.2-1.6.6-2.2.3-.6.8-1.2 1.5-1.5.6-.4 1.4-.6 2.4-.6s1.7.2 2.4.6c.6.4 1.1.9 1.5 1.5.3.6.5 1.4.6 2.2v1.6c0 .8-.2 1.6-.6 2.2-.3.7-.8 1.2-1.5 1.5-.6.4-1.4.6-2.4.6zm0-1.5c.8 0 1.4-.2 1.9-.8s.7-1.2.8-2.2v-1.4c0-1-.3-1.7-.8-2.2s-1.1-.8-1.9-.8c-.8 0-1.4.3-1.9.8s-.7 1.2-.8 2.2v1.4c0 1 .3 1.7.8 2.2s1.1.8 1.9.8zm12 4.9c-.1 0-.2 0-.3-.1-.1-.1-.1-.2-.1-.3v-12.6c0-.1 0-.2.1-.3.1-.1.2-.1.3-.1h.9c.1 0 .2 0 .3.1.1.1.1.2.1.3v.8c.3-.4.7-.8 1.2-1 .5-.3 1.1-.4 1.9-.4.7 0 1.3.1 1.8.4.5.2.9.6 1.2 1 .3.4.6.9.7 1.4.2.5.3 1.1.3 1.7v1.2c0 .6-.1 1.2-.3 1.7-.2.5-.4 1-.7 1.4-.3.4-.7.7-1.2 1-.5.2-1.1.4-1.8.4s-1.4-.1-1.9-.4c-.5-.3-.9-.6-1.2-1v4.4c0 .1 0 .2-.1.3-.1.1-.2.1-.3.1h-.9zm4-5c.7 0 1.2-.1 1.5-.4.4-.3.6-.7.8-1.1.2-.5.3-1 .3-1.5v-1.1c0-.5-.1-1-.3-1.5-.2-.5-.4-.8-.8-1.1-.4-.3-.9-.4-1.5-.4s-1.1.1-1.5.4c-.4.3-.7.7-.9 1.1s-.3.9-.3 1.4v1.4c0 .4.1.9.3 1.3s.5.8.9 1.1c.4.3.9.4 1.5.4zm9.6 1.6c-.6 0-1.2-.1-1.7-.4-.5-.3-.9-.6-1.3-1s-.5-.9-.5-1.5c0-.9.4-1.6 1.1-2.1.7-.5 1.6-.9 2.8-1l2.8-.4v-.6c0-.6-.2-1.1-.5-1.4-.3-.3-.9-.5-1.7-.5-.6 0-1 .1-1.4.3-.4.2-.6.5-.7.9-.1.2-.2.3-.4.3h-.9c-.1 0-.2 0-.3-.1-.1-.1-.1-.2-.1-.3 0-.2.1-.4.2-.7.1-.3.4-.6.7-.8.3-.3.7-.5 1.2-.7.5-.2 1.1-.3 1.7-.3.8 0 1.4.1 1.9.3s.9.5 1.2.8c.3.3.5.7.6 1.1.1.4.2.8.2 1.3v6.2c0 .1 0 .2-.1.3-.1.1-.2.1-.3.1h-.8c-.1 0-.2 0-.3-.1-.1-.1-.1-.2-.1-.3v-.8c-.2.2-.4.5-.7.7-.3.2-.6.4-1 .6s-1 .1-1.6.1zm.4-1.4c.5 0 1-.1 1.4-.3.4-.2.8-.6 1-1 .2-.5.4-1.1.4-1.8v-.5l-2.2.3c-.9.1-1.6.3-2 .6s-.7.7-.7 1.1c0 .4.1.6.3.9s.5.4.8.5c.3.1.6.2 1 .2zm10.8 1.4c-.7 0-1.4-.1-1.9-.3-.5-.2-.9-.4-1.2-.7-.3-.3-.5-.6-.7-.9s-.2-.6-.2-.9c0-.1 0-.2.1-.3.1-.1.2-.1.3-.1h.9c.1 0 .2 0 .3.1.1.1.1.1.2.3.2.5.4.8.9 1 .4.2 1 .3 1.6.3.4 0 .8-.1 1.1-.2.3-.1.6-.3.8-.5.2-.2.3-.5.3-.9 0-.5-.1-.9-.4-1.2-.3-.3-.8-.4-1.4-.4h-1c-.1 0-.2 0-.3-.1-.1-.1-.1-.2-.1-.3v-.5c0-.1 0-.2.1-.3.1-.1.2-.1.3-.1h.9c.5 0 .9-.1 1.2-.3.3-.2.4-.5.4-1 0-.3-.1-.5-.2-.8-.1-.2-.3-.4-.6-.6-.3-.2-.7-.2-1.2-.2-.7 0-1.3.1-1.5.4-.3.2-.5.6-.6 1.1-.1.1-.1.2-.2.3s-.2.1-.3.1h-.9c-.1 0-.2 0-.3-.1-.1-.1-.1-.2-.1-.3 0-.4.1-.7.3-1.1s.4-.7.7-.9c.3-.3.7-.5 1.2-.7.5-.2 1.1-.2 1.7-.2 1 0 1.7.1 2.3.4s.9.6 1.2 1.1c.2.4.4.8.4 1.3s-.1.9-.2 1.2c-.2.3-.5.6-.9.8.6.2 1 .5 1.2 1 .2.4.3.9.3 1.5 0 .7-.2 1.2-.5 1.6s-.8.8-1.5 1c-1 .3-1.7.4-2.5.4zm6.7-.2c-.1 0-.2 0-.3-.1-.1-.1-.1-.2-.1-.3v-9.1c0-.1 0-.2.1-.3s.2-.1.3-.1h1c.2 0 .4.1.5.3l3.2 6 3.2-6c.1-.2.3-.3.5-.3h1c.1 0 .2 0 .3.1.1.1.1.2.1.3v9.1c0 .1 0 .2-.1.3-.1.1-.2.1-.3.1h-.9c-.1 0-.2 0-.3-.1s-.1-.2-.1-.3V874l.7.1-3.1 5.9c-.1.1-.1.2-.2.3-.1.1-.2.2-.4.2h-.5c-.2 0-.3-.1-.4-.2-.1-.1-.2-.2-.2-.3l-3-5.6.6-.1v7.3c0 .1 0 .2-.1.3-.1.1-.2.1-.3.1h-1.2zm16.5.2c-1.3 0-2.4-.4-3.1-1.2-.8-.8-1.2-1.9-1.3-3.3v-1.2c0-.9.3-1.7.6-2.4.4-.7.9-1.2 1.5-1.6.6-.4 1.4-.6 2.3-.6 1 0 1.8.2 2.4.6s1.1 1 1.5 1.7c.3.7.5 1.6.5 2.6v.3c0 .1 0 .2-.1.3-.1.1-.2.1-.3.1H207v.2c0 .5.1 1 .3 1.5.2.5.5.8.9 1.1s.8.4 1.4.4c.5 0 .8-.1 1.1-.2.3-.1.6-.3.7-.5l.4-.4c.1-.2.2-.2.3-.3h1.2c.1 0 .2 0 .3.1.1.1.1.2.1.3 0 .2-.1.4-.3.7-.2.3-.5.5-.8.8-.3.3-.8.5-1.3.7s-1 .3-1.6.3zm-2.7-5.9h5.2v-.1c0-.6-.1-1.1-.3-1.5s-.5-.8-.9-1.1c-.4-.3-.9-.4-1.4-.4s-1 .1-1.4.4c-.4.3-.7.6-.9 1.1-.1.5-.3 1-.3 1.6zm21.5 8.1c-.1 0-.2 0-.3-.1-.1-.1-.1-.2-.1-.3v-2h-11.2c-.1 0-.2 0-.3-.1-.1-.1-.1-.2-.1-.3v-9c0-.1 0-.2.1-.3.1-.1.2-.1.3-.1h.9c.1 0 .2 0 .3.1.1.1.1.2.1.3v7.9h3.5v-7.9c0-.1 0-.2.1-.3.1-.1.2-.1.3-.1h.8c.1 0 .2 0 .3.1.1.1.1.2.1.3v7.9h3.5v-7.9c0-.1 0-.2.1-.3.1-.1.2-.1.3-.1h.9c.1 0 .2 0 .3.1.1.1.1.2.1.3v7.9h.9c.1 0 .2 0 .3.1.1.1.1.2.1.3v3c0 .1 0 .2-.1.3-.1.1-.2.1-.3.1h-.9zm6-2.2c-.6 0-1.2-.1-1.7-.4-.5-.3-.9-.6-1.3-1s-.5-.9-.5-1.5c0-.9.4-1.6 1.1-2.1.7-.5 1.6-.9 2.8-1l2.8-.4v-.6c0-.6-.2-1.1-.5-1.4-.3-.3-.9-.5-1.7-.5-.6 0-1 .1-1.4.3-.4.2-.6.5-.7.9-.1.2-.2.3-.4.3h-.9c-.1 0-.2 0-.3-.1-.1-.1-.1-.2-.1-.3 0-.2.1-.4.2-.7.1-.3.4-.6.7-.8.3-.3.7-.5 1.2-.7.5-.2 1.1-.3 1.7-.3.8 0 1.4.1 1.9.3s.9.5 1.2.8c.3.3.5.7.6 1.1.1.4.2.8.2 1.3v6.2c0 .1 0 .2-.1.3-.1.1-.2.1-.3.1h-.9c-.1 0-.2 0-.3-.1-.1-.1-.1-.2-.1-.3v-.8c-.2.2-.4.5-.7.7-.3.2-.6.4-1 .6s-.9.1-1.5.1zm.4-1.4c.5 0 1-.1 1.4-.3.4-.2.8-.6 1-1 .2-.5.4-1.1.4-1.8v-.5l-2.2.3c-.9.1-1.6.3-2 .6s-.7.7-.7 1.1c0 .4.1.6.3.9s.5.4.8.5c.4.1.7.2 1 .2zm10.4 1.2c-.1 0-.2 0-.3-.1-.1-.1-.1-.2-.1-.3v-7.9h-3.3c-.1 0-.2 0-.3-.1-.1-.1-.1-.2-.1-.3v-.6c0-.1 0-.2.1-.3.1-.1.2-.1.3-.1h8.4c.1 0 .2 0 .3.1.1.1.1.2.1.3v.6c0 .1 0 .2-.1.3s-.2.1-.3.1h-3.3v7.9c0 .1 0 .2-.1.3-.1.1-.2.1-.3.1h-1zm7.1 0c-.1 0-.2 0-.3-.1-.1-.1-.1-.2-.1-.3v-9c0-.1 0-.2.1-.3.1-.1.2-.1.3-.1h.9c.1 0 .2 0 .3.1.1.1.1.2.1.3v2.8h2.1c1.3 0 2.2.3 2.8.9.6.6.9 1.4.9 2.5s-.3 1.9-1 2.5c-.7.5-1.6.8-3 .8h-3.1zm1.4-1.4h2c.8 0 1.3-.1 1.7-.4.4-.3.5-.8.5-1.4 0-.7-.2-1.2-.5-1.5-.3-.3-.9-.5-1.7-.5h-2v3.8zm11.7 1.6c-.9 0-1.7-.2-2.3-.5-.7-.3-1.2-.8-1.5-1.5-.4-.7-.5-1.4-.6-2.3v-1.6c0-.9.2-1.7.6-2.3.4-.7.9-1.2 1.5-1.5.7-.3 1.4-.5 2.3-.5.7 0 1.4.1 1.9.3.5.2 1 .5 1.3.8.3.3.6.7.8 1s.3.7.3 1c0 .1 0 .2-.1.3-.1.1-.2.1-.3.1h-.9c-.1 0-.2 0-.3-.1-.1-.1-.1-.2-.2-.3-.2-.6-.5-1.1-.9-1.3-.4-.3-.9-.4-1.5-.4-.8 0-1.4.2-1.9.7-.5.5-.7 1.2-.8 2.3v1.3c0 1.1.3 1.8.8 2.3.5.5 1.1.7 1.9.7.6 0 1.1-.1 1.5-.4.4-.3.7-.7.9-1.3.1-.1.1-.2.2-.3s.2-.1.3-.1h.9c.1 0 .2 0 .3.1.1.1.1.2.1.3 0 .3-.1.5-.2.8-.1.3-.3.6-.5.8l-.8.8c-.3.2-.7.4-1.2.5s-1 .3-1.6.3zm6.6-.2c-.1 0-.2 0-.3-.1s-.1-.2-.1-.3v-.2c0-.1.1-.1.1-.2l2.3-3.3 1.8.1-2.4 3.6-.2.2c-.1.1-.2.1-.3.1h-.9zm6.1 0c-.1 0-.2 0-.3-.1-.1-.1-.1-.2-.1-.3v-3.1h-2.2v-.1c-1.2 0-2.1-.3-2.7-.9-.6-.6-.9-1.3-.9-2.3 0-1.1.3-1.8.9-2.4s1.6-.8 2.8-.8h3.3c.1 0 .2 0 .3.1.1.1.1.2.1.3v9c0 .1 0 .2-.1.3-.1.1-.2.1-.3.1h-.8zm-2.6-5h2.1v-3.5h-2c-.7 0-1.2.1-1.6.4-.3.2-.5.7-.5 1.3 0 .5.2.9.5 1.3.4.4.8.5 1.5.5zM86.2 905c-.1 0-.2 0-.3-.1-.1-.1-.1-.2-.1-.3v-9c0-.1 0-.2.1-.3.1-.1.2-.1.3-.1h4c1.2 0 2.1.2 2.7.7s.9 1.1.9 1.9c0 .6-.1 1-.3 1.3s-.5.5-.9.7c.5.2.8.5 1.1 1 .2.5.4.9.4 1.4 0 .9-.3 1.6-1 2.1s-1.5.7-2.7.7h-4.2zm1.3-5.7H90c.6 0 1.1-.1 1.5-.4.4-.3.5-.6.5-1.1 0-.5-.2-.8-.5-1-.4-.2-.8-.3-1.5-.3h-2.5v2.8zm0 4.3h2.6c.6 0 1.1-.1 1.5-.4.4-.2.6-.6.6-1.1 0-.5-.2-.9-.5-1.1-.3-.2-.8-.4-1.5-.4h-2.6v3zm17.5 1.6c-.9 0-1.7-.2-2.3-.5-.7-.3-1.2-.8-1.5-1.5-.4-.7-.5-1.4-.6-2.3v-1.6c0-.9.2-1.7.6-2.3.4-.7.9-1.2 1.5-1.5.7-.3 1.4-.5 2.3-.5.7 0 1.4.1 1.9.3.5.2 1 .5 1.3.8.3.3.6.7.8 1s.3.7.3 1c0 .1 0 .2-.1.3-.1.1-.2.1-.3.1h-.9c-.1 0-.2 0-.3-.1-.1-.1-.1-.2-.2-.3-.2-.6-.5-1.1-.9-1.3-.4-.3-.9-.4-1.5-.4-.8 0-1.4.2-1.9.7-.5.5-.7 1.2-.8 2.3v1.3c0 1.1.3 1.8.8 2.3.5.5 1.1.7 1.9.7.6 0 1.1-.1 1.5-.4.4-.3.7-.7.9-1.3.1-.1.1-.2.2-.3s.2-.1.3-.1h.9c.1 0 .2 0 .3.1.1.1.1.2.1.3 0 .3-.1.5-.2.8-.1.3-.3.6-.5.8l-.8.8c-.3.2-.7.4-1.2.5-.4.2-1 .3-1.6.3zm9.6-.5l-3.8-8.9c-.1-.2-.1-.3-.1-.3 0-.1.1-.2.1-.3.1-.1.2-.1.3-.1h.9c.1 0 .2 0 .3.1l.2.2 3.2 7.5-1.1 1.8zm-2.6 3.9c-.1 0-.2 0-.3-.1-.1-.1-.1-.2-.1-.3v-.6c0-.1 0-.2.1-.3.1-.1.2-.1.3-.1h.5c.3 0 .5-.1.7-.2.2-.1.3-.3.5-.6s.3-.6.5-1.1l4.1-9.8c0-.1.1-.2.2-.2.1-.1.2-.1.3-.1h.9c.1 0 .2 0 .3.1.1.1.1.2.1.3v.1s0 .1-.1.2l-3.6 8.5c-.2.5-.4.9-.6 1.4-.2.5-.5 1-.8 1.4s-.6.8-1 1c-.4.3-.8.4-1.3.4h-.7zm9.5-3.6c-.1 0-.2 0-.3-.1-.1-.1-.1-.2-.1-.3v-.1c0-.1.1-.1.1-.2l3.3-4.3-3.1-4.1c-.1-.1-.1-.1-.1-.2v-.2c0-.1 0-.2.1-.3.1-.1.2-.1.3-.1h1c.1 0 .2 0 .3.1l.2.2 2.5 3.3 2.5-3.3.2-.2c.1-.1.2-.1.3-.1h.9c.1 0 .2 0 .3.1.1.1.1.2.1.3v.2c0 .1-.1.1-.1.2l-3.1 4.1 3.3 4.3c.1.1.1.1.1.2v.2c0 .1 0 .2-.1.3-.1.1-.2.1-.3.1h-1c-.1 0-.2 0-.3-.1l-.2-.2-2.7-3.5-2.7 3.5-.2.2c-.1.1-.2.1-.3.1h-.9zm14.7.2c-1 0-1.8-.2-2.4-.6-.6-.4-1.1-.9-1.5-1.5-.3-.7-.5-1.4-.6-2.2v-1.6c0-.8.2-1.6.6-2.2.3-.6.8-1.2 1.5-1.5.6-.4 1.4-.6 2.4-.6s1.7.2 2.4.6c.6.4 1.1.9 1.5 1.5.3.6.5 1.4.6 2.2v1.6c0 .8-.2 1.6-.6 2.2-.3.7-.8 1.2-1.5 1.5-.6.4-1.4.6-2.4.6zm0-1.5c.8 0 1.4-.2 1.9-.8s.7-1.2.8-2.2v-1.4c0-1-.3-1.7-.8-2.2s-1.1-.8-1.9-.8c-.8 0-1.4.3-1.9.8s-.7 1.2-.8 2.2v1.4c0 1 .3 1.7.8 2.2s1.2.8 1.9.8zm7.3 1.3c-.1 0-.2 0-.3-.1-.1-.1-.1-.2-.1-.3v-9.1c0-.1 0-.2.1-.3s.2-.1.3-.1h1c.2 0 .4.1.5.3l3.2 6 3.2-6c.1-.2.3-.3.5-.3h1c.1 0 .2 0 .3.1.1.1.1.2.1.3v9.1c0 .1 0 .2-.1.3-.1.1-.2.1-.3.1h-.9c-.1 0-.2 0-.3-.1s-.1-.2-.1-.3V897l.7.1-3.1 5.9c-.1.1-.1.2-.2.3-.1.1-.2.2-.4.2h-.5c-.2 0-.3-.1-.4-.2-.1-.1-.2-.2-.2-.3l-3-5.6.6-.1v7.3c0 .1 0 .2-.1.3-.1.1-.2.1-.3.1h-1.2zm17.6 0c-.1 0-.2 0-.3-.1-.1-.1-.1-.2-.1-.3v-9c0-.1 0-.2.1-.3.1-.1.2-.1.3-.1h7.5c.1 0 .2 0 .3.1.1.1.1.2.1.3v9c0 .1 0 .2-.1.3-.1.1-.2.1-.3.1h-.9c-.1 0-.2 0-.3-.1-.1-.1-.1-.2-.1-.3v-7.9h-4.9v7.9c0 .1 0 .2-.1.3-.1.1-.2.1-.3.1h-.9zm14.9.2c-1 0-1.8-.2-2.4-.6-.6-.4-1.1-.9-1.5-1.5-.3-.7-.5-1.4-.6-2.2v-1.6c0-.8.2-1.6.6-2.2.3-.6.8-1.2 1.5-1.5.6-.4 1.4-.6 2.4-.6s1.7.2 2.4.6c.6.4 1.1.9 1.5 1.5.3.6.5 1.4.6 2.2v1.6c0 .8-.2 1.6-.6 2.2-.3.7-.8 1.2-1.5 1.5-.6.4-1.4.6-2.4.6zm0-1.5c.8 0 1.4-.2 1.9-.8s.7-1.2.8-2.2v-1.4c0-1-.3-1.7-.8-2.2s-1.1-.8-1.9-.8c-.8 0-1.4.3-1.9.8s-.7 1.2-.8 2.2v1.4c0 1 .3 1.7.8 2.2s1.1.8 1.9.8zm7.3 1.3c-.1 0-.2 0-.3-.1-.1-.1-.1-.2-.1-.3v-9.1c0-.1 0-.2.1-.3s.2-.1.3-.1h1c.2 0 .4.1.5.3l3.2 6 3.2-6c.1-.2.3-.3.5-.3h1c.1 0 .2 0 .3.1.1.1.1.2.1.3v9.1c0 .1 0 .2-.1.3-.1.1-.2.1-.3.1h-.9c-.1 0-.2 0-.3-.1s-.1-.2-.1-.3V897l.7.1-3.1 5.9c-.1.1-.1.2-.2.3-.1.1-.2.2-.4.2h-.5c-.2 0-.3-.1-.4-.2-.1-.1-.2-.2-.2-.3l-3-5.6.6-.1v7.3c0 .1 0 .2-.1.3-.1.1-.2.1-.3.1h-1.2zm16.5.2c-1.3 0-2.4-.4-3.1-1.2-.8-.8-1.2-1.9-1.3-3.3v-1.2c0-.9.3-1.7.6-2.4.4-.7.9-1.2 1.5-1.6.6-.4 1.4-.6 2.3-.6 1 0 1.8.2 2.4.6s1.1 1 1.5 1.7c.3.7.5 1.6.5 2.6v.3c0 .1 0 .2-.1.3-.1.1-.2.1-.3.1h-6.6v.2c0 .5.1 1 .3 1.5.2.5.5.8.9 1.1s.8.4 1.4.4c.5 0 .8-.1 1.1-.2.3-.1.6-.3.7-.5l.4-.4c.1-.2.2-.2.3-.3h1.2c.1 0 .2 0 .3.1.1.1.1.2.1.3 0 .2-.1.4-.3.7-.2.3-.5.5-.8.8-.3.3-.8.5-1.3.7s-1.1.3-1.7.3zm-2.6-5.9h5.2v-.1c0-.6-.1-1.1-.3-1.5s-.5-.8-.9-1.1c-.4-.3-.9-.4-1.4-.4s-1 .1-1.4.4c-.4.3-.7.6-.9 1.1-.2.5-.3 1-.3 1.6zm21.4 8.1c-.1 0-.2 0-.3-.1-.1-.1-.1-.2-.1-.3v-2H207c-.1 0-.2 0-.3-.1-.1-.1-.1-.2-.1-.3v-9c0-.1 0-.2.1-.3.1-.1.2-.1.3-.1h.9c.1 0 .2 0 .3.1.1.1.1.2.1.3v7.9h3.5v-7.9c0-.1 0-.2.1-.3.1-.1.2-.1.3-.1h.8c.1 0 .2 0 .3.1.1.1.1.2.1.3v7.9h3.5v-7.9c0-.1 0-.2.1-.3.1-.1.2-.1.3-.1h.9c.1 0 .2 0 .3.1.1.1.1.2.1.3v7.9h.9c.1 0 .2 0 .3.1.1.1.1.2.1.3v3c0 .1 0 .2-.1.3-.1.1-.2.1-.3.1h-.9zm7.2-2.2c-1.3 0-2.4-.4-3.1-1.2-.8-.8-1.2-1.9-1.3-3.3v-1.2c0-.9.3-1.7.6-2.4.4-.7.9-1.2 1.5-1.6.6-.4 1.4-.6 2.3-.6 1 0 1.8.2 2.4.6s1.1 1 1.5 1.7c.3.7.5 1.6.5 2.6v.3c0 .1 0 .2-.1.3-.1.1-.2.1-.3.1h-6.6v.2c0 .5.1 1 .3 1.5.2.5.5.8.9 1.1s.8.4 1.4.4c.5 0 .8-.1 1.1-.2.3-.1.6-.3.7-.5l.4-.4c.1-.2.2-.2.3-.3h1.2c.1 0 .2 0 .3.1.1.1.1.2.1.3 0 .2-.1.4-.3.7-.2.3-.5.5-.8.8-.3.3-.8.5-1.3.7s-1 .3-1.7.3zm-2.6-5.9h5.2v-.1c0-.6-.1-1.1-.3-1.5s-.5-.8-.9-1.1c-.4-.3-.9-.4-1.4-.4s-1 .1-1.4.4c-.4.3-.7.6-.9 1.1-.2.5-.3 1-.3 1.6zm9.8 5.7c-.1 0-.2 0-.3-.1-.1-.1-.1-.2-.1-.3v-9c0-.1 0-.2.1-.3.1-.1.2-.1.3-.1h.9c.1 0 .2 0 .3.1.1.1.1.2.1.3v3.6h5.2v-3.6c0-.1 0-.2.1-.3.1-.1.2-.1.3-.1h.9c.1 0 .2 0 .3.1.1.1.1.2.1.3v9c0 .1 0 .2-.1.3-.1.1-.2.1-.3.1h-.9c-.1 0-.2 0-.3-.1-.1-.1-.1-.2-.1-.3v-3.8h-5.2v3.8c0 .1 0 .2-.1.3-.1.1-.2.1-.3.1h-.9zm11.5 0c-.1 0-.2 0-.3-.1-.1-.1-.1-.2-.1-.3v-9c0-.1 0-.2.1-.3.1-.1.2-.1.3-.1h.9c.1 0 .2 0 .3.1.1.1.1.2.1.3v8.1l-.5-.5 5.8-7.7.2-.2c.1-.1.2-.1.3-.1h.9c.1 0 .2 0 .3.1.1.1.1.2.1.3v9.1c0 .1 0 .2-.1.3-.1.1-.2.1-.3.1h-.9c-.1 0-.2 0-.3-.1-.1-.1-.1-.2-.1-.3V897h.5l-5.8 7.8-.2.2c-.1.1-.2.1-.3.1h-.9zm11.6 0c-.1 0-.2 0-.3-.1-.1-.1-.1-.2-.1-.3v-9c0-.1 0-.2.1-.3.1-.1.2-.1.3-.1h.9c.1 0 .2 0 .3.1.1.1.1.2.1.3v8.1l-.5-.5 5.8-7.7.2-.2c.1-.1.2-.1.3-.1h.9c.1 0 .2 0 .3.1.1.1.1.2.1.3v9.1c0 .1 0 .2-.1.3-.1.1-.2.1-.3.1h-.9c-.1 0-.2 0-.3-.1-.1-.1-.1-.2-.1-.3V897h.5l-5.8 7.8-.2.2c-.1.1-.2.1-.3.1h-.9zm11.4 0c-.1 0-.2 0-.3-.1-.1-.1-.1-.2-.1-.3v-1.4c0-.1 0-.2.1-.3.1-.1.2-.1.3-.1h1.4c.1 0 .2 0 .3.1.1.1.1.2.1.3v1.4c0 .1 0 .2-.1.3-.1.1-.2.1-.3.1h-1.4z"/><path class="st11" d="M358.5 869h167.7v63.2H358.5z"/><path d="M423.6 879.6c-.1 0-.2 0-.3-.1-.1-.1-.1-.1-.1-.2v-9.8c0-.1 0-.2.1-.3s.1-.1.3-.1h3.4c1 0 1.9.2 2.5.5.6.3 1.1.8 1.4 1.4.3.6.4 1.3.5 2.2v2.4c0 .9-.2 1.7-.5 2.3-.3.6-.7 1.1-1.4 1.4-.6.3-1.4.4-2.4.4h-3.5zm1.2-1.2h2.3c.7 0 1.2-.1 1.6-.3.4-.2.7-.5.9-.9.2-.4.3-1 .3-1.7v-2.3c0-1-.2-1.7-.7-2.2-.4-.5-1.2-.7-2.2-.7h-2.2v8.1zm12.6 1.4c-.9 0-1.7-.2-2.3-.5-.6-.3-1.1-.8-1.4-1.4-.3-.6-.5-1.3-.5-2.1v-2.6c0-.8.2-1.5.5-2.1s.8-1.1 1.4-1.4 1.4-.5 2.3-.5c.7 0 1.3.1 1.8.3.5.2 1 .4 1.3.8.3.3.6.7.8 1.1.2.4.3.8.3 1.2 0 .1 0 .2-.1.2-.1.1-.1.1-.2.1h-.8c-.1 0-.2 0-.2-.1-.1 0-.1-.1-.1-.3-.2-.8-.5-1.3-1-1.6-.5-.3-1-.4-1.7-.4-.8 0-1.5.2-1.9.7-.5.5-.7 1.2-.8 2.2v2.5c0 1 .3 1.7.8 2.2.5.5 1.1.7 1.9.7.7 0 1.3-.1 1.7-.4.5-.3.8-.8 1-1.6 0-.1.1-.2.1-.3.1-.1.1-.1.2-.1h.8c.1 0 .2 0 .2.1.1.1.1.1.1.2 0 .4-.1.8-.3 1.2-.2.4-.4.8-.8 1.1-.3.3-.8.6-1.3.8-.5-.1-1.1 0-1.8 0zm6.6-.2c-.1 0-.2 0-.3-.1-.1-.1-.1-.1-.1-.2v-9.8c0-.1 0-.2.1-.3s.1-.1.3-.1h.8c.1 0 .2 0 .3.1s.1.2.1.3v4.1h5.2v-4.1c0-.1 0-.2.1-.3s.1-.1.2-.1h.8c.1 0 .2 0 .3.1.1.1.1.2.1.3v9.8c0 .1 0 .2-.1.2-.1.1-.2.1-.3.1h-.8c-.1 0-.2 0-.2-.1-.1-.1-.1-.1-.1-.2V875h-5.2v4.3c0 .1 0 .2-.1.2-.1.1-.2.1-.3.1h-.8zm10.7 0c-.1 0-.2 0-.3-.1-.1-.1-.1-.1-.1-.2v-9.8c0-.1 0-.2.1-.3.1-.1.1-.1.3-.1h3.8c.7 0 1.4.1 1.9.4.5.2 1 .6 1.3 1.1s.5 1.1.5 1.8-.2 1.3-.5 1.8-.7.8-1.3 1.1-1.2.4-1.9.4h-2.7v3.8c0 .1 0 .2-.1.2-.1.1-.2.1-.3.1h-.7zm1.1-5.3h2.6c.7 0 1.3-.2 1.7-.5s.6-.8.6-1.4c0-.6-.2-1.1-.5-1.4-.4-.3-.9-.5-1.7-.5h-2.6v3.8zM390 895.6c-.1 0-.2 0-.2-.1-.1-.1-.1-.1-.1-.2v-9.8c0-.1 0-.2.1-.3s.1-.1.2-.1h.8c.1 0 .2 0 .3.1.1.1.1.1.1.2l3.2 6.1 3.2-6.1s.1-.1.1-.2c.1-.1.1-.1.3-.1h.7c.1 0 .2 0 .3.1s.1.2.1.3v9.8c0 .1 0 .2-.1.2-.1.1-.2.1-.3.1h-.7c-.1 0-.2 0-.2-.1-.1-.1-.1-.1-.1-.2v-7.4l-2.5 4.9c0 .1-.1.2-.2.2-.1.1-.2.1-.3.1h-.5c-.1 0-.2 0-.3-.1l-.2-.2-2.5-4.9v7.4c0 .1 0 .2-.1.2-.1.1-.1.1-.2.1h-.9zm13.6.2c-.5 0-1-.1-1.4-.3-.4-.2-.7-.5-1-.8-.3-.3-.4-.7-.4-1.2 0-.7.3-1.2.8-1.6s1.3-.7 2.2-.8l2.2-.3v-.4c0-.5-.1-.9-.4-1.1-.3-.3-.7-.4-1.3-.4-.4 0-.8.1-1.1.3s-.5.4-.6.7c-.1.1-.2.2-.3.2h-.7c-.1 0-.2 0-.2-.1-.1-.1-.1-.1-.1-.2 0-.2.1-.3.2-.6.1-.2.3-.4.5-.6.2-.2.5-.4.9-.5s.8-.2 1.4-.2c.6 0 1.1.1 1.5.2.4.2.7.4 1 .6s.4.6.5.9c.1.3.2.7.2 1v4.9c0 .1 0 .2-.1.2-.1.1-.1.1-.2.1h-.7c-.1 0-.2 0-.3-.1-.1-.1-.1-.1-.1-.2v-.6c-.1.2-.3.4-.5.5-.2.2-.5.3-.8.4s-.7 0-1.2 0zm.3-1.1c.4 0 .8-.1 1.1-.3.3-.2.6-.4.8-.8.2-.4.3-.8.3-1.4v-.4l-1.7.3c-.7.1-1.2.3-1.6.5s-.5.5-.5.9c0 .3.1.5.2.7.2.2.4.3.6.4.3 0 .5.1.8.1zm6.2 3.8c-.1 0-.2 0-.2-.1-.1-.1-.1-.1-.1-.2v-10c0-.1 0-.2.1-.2.1-.1.1-.1.2-.1h.7c.1 0 .2 0 .2.1.1.1.1.1.1.2v.7c.2-.3.6-.6 1-.8s.9-.3 1.5-.3 1 .1 1.4.3c.4.2.7.5 1 .8.3.3.4.7.6 1.1s.2.9.2 1.3v1c0 .5-.1.9-.2 1.3s-.3.8-.6 1.1c-.3.3-.6.6-1 .8-.4.2-.9.3-1.4.3-.6 0-1.1-.1-1.5-.3-.4-.2-.7-.5-1-.8v3.5c0 .1 0 .2-.1.2-.1.1-.1.1-.2.1h-.7zm3.1-3.9c.5 0 .9-.1 1.2-.3.3-.2.5-.5.6-.9s.2-.8.2-1.2v-.9c0-.4-.1-.8-.2-1.2-.1-.4-.3-.7-.6-.9s-.7-.3-1.2-.3-.9.1-1.2.3c-.3.2-.5.5-.7.9-.1.4-.2.7-.2 1.1v1.2c0 .3.1.7.2 1 .2.3.4.6.7.8.4.3.8.4 1.2.4zm5.8 1c-.1 0-.2 0-.2-.1-.1-.1-.1-.1-.1-.2v-7.1c0-.1 0-.2.1-.2.1-.1.1-.1.2-.1h.7c.1 0 .2 0 .2.1.1.1.1.1.1.2v6.3h2.7v-6.3c0-.1 0-.2.1-.2.1-.1.1-.1.2-.1h.6c.1 0 .2 0 .3.1.1.1.1.1.1.2v6.3h2.7v-6.3c0-.1 0-.2.1-.2.1-.1.1-.1.2-.1h.7c.1 0 .2 0 .2.1.1.1.1.1.1.2v7.1c0 .1 0 .2-.1.2-.1.1-.1.1-.2.1H419zm11.8 2.9c-.1 0-.2 0-.2-.1-.1-.1-.1-.1-.1-.2v-10c0-.1 0-.2.1-.2.1-.1.1-.1.2-.1h.7c.1 0 .2 0 .2.1.1.1.1.1.1.2v.7c.2-.3.6-.6 1-.8s.9-.3 1.5-.3 1 .1 1.4.3c.4.2.7.5 1 .8.3.3.4.7.6 1.1s.2.9.2 1.3v1c0 .5-.1.9-.2 1.3s-.3.8-.6 1.1c-.3.3-.6.6-1 .8-.4.2-.9.3-1.4.3-.6 0-1.1-.1-1.5-.3-.4-.2-.7-.5-1-.8v3.5c0 .1 0 .2-.1.2-.1.1-.1.1-.2.1h-.7zm3.2-3.9c.5 0 .9-.1 1.2-.3.3-.2.5-.5.6-.9s.2-.8.2-1.2v-.9c0-.4-.1-.8-.2-1.2-.1-.4-.3-.7-.6-.9s-.7-.3-1.2-.3-.9.1-1.2.3c-.3.2-.5.5-.7.9-.1.4-.2.7-.2 1.1v1.2c0 .3.1.7.2 1 .2.3.4.6.7.8.3.3.7.4 1.2.4zm7.8 1c-.1 0-.2 0-.2-.1-.1-.1-.1-.1-.1-.2V889h-2.6c-.1 0-.2 0-.2-.1-.1-.1-.1-.1-.1-.2v-.5c0-.1 0-.2.1-.2.1-.1.1-.1.2-.1h6.6c.1 0 .2 0 .2.1.1.1.1.1.1.2v.5c0 .1 0 .2-.1.2-.1.1-.1.1-.2.1h-2.6v6.3c0 .1 0 .2-.1.2-.1.1-.1.1-.2.1h-.8zm5.6 0c-.1 0-.2 0-.2-.1-.1-.1-.1-.1-.1-.2v-7.1c0-.1 0-.2.1-.2.1-.1.1-.1.2-.1h.7c.1 0 .2 0 .2.1.1.1.1.1.1.2v6.4l-.4-.4 4.5-6.1c0-.1.1-.1.2-.2.1 0 .1-.1.2-.1h.7c.1 0 .2 0 .2.1.1.1.1.1.1.2v7.2c0 .1 0 .2-.1.2-.1.1-.1.1-.2.1h-.6c-.1 0-.2 0-.3-.1-.1-.1-.1-.1-.1-.2v-6h.4l-4.6 6.1-.1.1c-.1.1-.1.1-.2.1h-.7zm11.5.2c-.6 0-1.1-.1-1.5-.2-.4-.1-.7-.3-1-.6-.2-.2-.4-.5-.5-.7-.1-.2-.2-.5-.2-.7 0-.1 0-.2.1-.2.1-.1.1-.1.2-.1h.7c.1 0 .2 0 .2.1s.1.1.1.2c.1.4.4.7.7.8.3.1.8.2 1.2.2.3 0 .6 0 .9-.1.3-.1.5-.2.6-.4.2-.2.2-.4.2-.7 0-.4-.1-.7-.4-.9-.2-.2-.6-.3-1.1-.3h-.8c-.1 0-.2 0-.2-.1-.1-.1-.1-.1-.1-.2v-.4c0-.1 0-.2.1-.2.1-.1.1-.1.2-.1h.7c.4 0 .7-.1.9-.2.2-.2.3-.4.3-.8 0-.2-.1-.4-.2-.6-.1-.2-.3-.3-.5-.5-.2-.1-.6-.2-1-.2-.6 0-1 .1-1.2.3-.2.2-.4.5-.5.9 0 .1-.1.2-.1.2-.1 0-.1.1-.2.1h-.7c-.1 0-.2 0-.2-.1-.1 0-.1-.1-.1-.2 0-.3.1-.6.2-.9.1-.3.3-.5.6-.7s.6-.4 1-.5c.4-.1.8-.2 1.4-.2.8 0 1.3.1 1.8.3.4.2.7.5.9.8.2.3.3.7.3 1 0 .4-.1.7-.2 1-.1.3-.4.5-.7.7.5.2.8.4.9.8.2.3.3.7.3 1.2s-.1 1-.4 1.3c-.3.3-.7.6-1.2.8s-.8.1-1.5.1zm7.2 0c-.5 0-1-.1-1.4-.3-.4-.2-.7-.5-1-.8s-.4-.7-.4-1.2c0-.7.3-1.2.8-1.6.6-.4 1.3-.7 2.2-.8l2.2-.3v-.4c0-.5-.1-.9-.4-1.1-.3-.3-.7-.4-1.3-.4-.4 0-.8.1-1.1.3-.3.2-.5.4-.6.7-.1.1-.2.2-.3.2h-.7c-.1 0-.2 0-.2-.1-.1-.1-.1-.1-.1-.2 0-.2.1-.3.2-.6.1-.2.3-.4.5-.6s.5-.4.9-.5.8-.2 1.4-.2c.6 0 1.1.1 1.5.2.4.2.7.4 1 .6.2.3.4.6.5.9.1.3.2.7.2 1v4.9c0 .1 0 .2-.1.2-.1.1-.1.1-.2.1h-.7c-.1 0-.2 0-.3-.1-.1-.1-.1-.1-.1-.2v-.6c-.1.2-.3.4-.5.5-.2.2-.5.3-.8.4s-.8 0-1.2 0zm.3-1.1c.4 0 .8-.1 1.1-.3s.6-.4.8-.8.3-.8.3-1.4v-.4l-1.7.3c-.7.1-1.2.3-1.6.5-.4.2-.5.5-.5.9 0 .3.1.5.2.7.2.2.4.3.6.4.2 0 .5.1.8.1zm8.1.9c-.1 0-.2 0-.2-.1-.1-.1-.1-.1-.1-.2V889h-2.6c-.1 0-.2 0-.2-.1-.1-.1-.1-.1-.1-.2v-.5c0-.1 0-.2.1-.2.1-.1.1-.1.2-.1h6.6c.1 0 .2 0 .2.1.1.1.1.1.1.2v.5c0 .1 0 .2-.1.2-.1.1-.1.1-.2.1h-2.6v6.3c0 .1 0 .2-.1.2-.1.1-.1.1-.2.1h-.8zm8.5.2c-.8 0-1.4-.1-1.9-.4-.5-.3-.9-.7-1.2-1.2-.3-.5-.4-1.1-.5-1.8v-1.3c0-.7.2-1.3.5-1.8s.7-.9 1.2-1.2 1.1-.4 1.9-.4 1.4.1 1.9.4c.5.3.9.7 1.2 1.2.3.5.4 1.1.5 1.8v1.3c0 .7-.2 1.2-.5 1.8-.3.5-.7.9-1.2 1.2s-1.1.4-1.9.4zm0-1.2c.6 0 1.1-.2 1.5-.6.4-.4.6-1 .6-1.7v-1.2c0-.8-.2-1.3-.6-1.7-.4-.4-.9-.6-1.5-.6s-1.1.2-1.5.6c-.4.4-.6 1-.6 1.7v1.2c0 .8.2 1.3.6 1.7.4.4.9.6 1.5.6zm5.8 3.9c-.1 0-.2 0-.2-.1-.1-.1-.1-.1-.1-.2v-10c0-.1 0-.2.1-.2.1-.1.1-.1.2-.1h.7c.1 0 .2 0 .2.1.1.1.1.1.1.2v.7c.2-.3.6-.6 1-.8s.9-.3 1.5-.3 1 .1 1.4.3c.4.2.7.5 1 .8.3.3.4.7.6 1.1s.2.9.2 1.3v1c0 .5-.1.9-.2 1.3s-.3.8-.6 1.1c-.3.3-.6.6-1 .8-.4.2-.9.3-1.4.3-.6 0-1.1-.1-1.5-.3-.4-.2-.7-.5-1-.8v3.5c0 .1 0 .2-.1.2-.1.1-.1.1-.2.1h-.7zm3.2-3.9c.5 0 .9-.1 1.2-.3.3-.2.5-.5.6-.9s.2-.8.2-1.2v-.9c0-.4-.1-.8-.2-1.2-.1-.4-.3-.7-.6-.9s-.7-.3-1.2-.3-.9.1-1.2.3c-.3.2-.5.5-.7.9-.1.4-.2.7-.2 1.1v1.2c0 .3.1.7.2 1 .2.3.4.6.7.8.3.3.7.4 1.2.4z"/><path class="st11" d="M543.2 837.5h34.2v18.3h-34.2z"/><path d="M547.5 848.1c-.1 0-.2 0-.3-.1-.1-.1-.1-.1-.1-.2V838c0-.1 0-.2.1-.2s.1-.1.3-.1h.8c.1 0 .2 0 .2.1s.1.1.1.2v8.9h5c.1 0 .2 0 .3.1.1.1.1.2.1.3v.6c0 .1 0 .2-.1.2-.1.1-.2.1-.3.1h-6.1zm7.4 0c-.1 0-.1 0-.2-.1s-.1-.1-.1-.2v-.2l3.7-9.7c0-.1.1-.2.2-.2.1-.1.2-.1.3-.1h1c.1 0 .2 0 .3.1l.2.2 3.7 9.7v.2c0 .1 0 .1-.1.2s-.1.1-.2.1h-.7c-.1 0-.2 0-.3-.1-.1-.1-.1-.1-.1-.2l-.8-2.1h-4.9l-.8 2.1s0 .1-.1.2-.1.1-.3.1h-.8zm2.4-3.6h4l-2-5.3-2 5.3zm8.7 3.6c-.1 0-.2 0-.3-.1-.1-.1-.1-.1-.1-.2V838c0-.1 0-.2.1-.3s.1-.1.3-.1h.7c.1 0 .2 0 .3.1l.1.1 5 7.7V838c0-.1 0-.2.1-.3s.1-.1.3-.1h.7c.1 0 .2 0 .3.1.1.1.1.2.1.3v9.8c0 .1 0 .2-.1.3-.1.1-.1.1-.2.1h-.7c-.1 0-.2 0-.2-.1l-.1-.1-5-7.6v7.4c0 .1 0 .2-.1.2-.1.1-.2.1-.3.1h-.9z"/><path fill="none" stroke="#b7b7b7" stroke-linecap="round" stroke-miterlimit="10" d="M581.5 502.5h48v19h-48z"/><path class="st14" d="M546.5 761.5h28l31 30"/><linearGradient id="SVGID_1_" gradientUnits="userSpaceOnUse" x1="604.5" y1="393.041" x2="604.5" y2="346.337" gradientTransform="matrix(1 0 0 -1 0 1039)"><stop offset="0" stop-color="#f2f2f2" stop-opacity="0"/><stop offset=".259" stop-color="#f2f2f2"/><stop offset=".75" stop-color="#f2f2f2"/><stop offset="1" stop-color="#f2f2f2" stop-opacity="0"/></linearGradient><path fill="url(#SVGID_1_)" d="M566 645h77v48h-77z"/><path class="st11" d="M537.9 662h134.9v18.3H537.9z"/><path d="M575.3 675.9c-.1 0-.2 0-.3-.1-.1-.1-.1-.2-.1-.3v-2.4c0-.1 0-.2.1-.3.1-.1.2-.1.3-.1h.1c.3 0 .6-.2.8-.5.2-.3.4-.9.5-1.6.1-.7.2-1.7.2-2.8v-2.2c0-.1 0-.2.1-.3.1-.1.2-.1.3-.1h5.4c.1 0 .2 0 .3.1.1.1.1.2.1.3v7.1h.8c.1 0 .2 0 .3.1.1.1.1.2.1.3v2.5c0 .1 0 .2-.1.3-.1.1-.2.1-.3.1h-.8c-.1 0-.2 0-.3-.1-.1-.1-.1-.2-.1-.3v-1.5h-6.2v1.5c0 .1 0 .2-.1.3-.1.1-.2.1-.3.1h-.8zm2.1-3.2h4v-6.1h-3.1v1.4c0 1.2-.1 2.2-.3 2.9 0 .8-.3 1.4-.6 1.8zm12.3 1.5c-.9 0-1.6-.2-2.2-.5-.6-.3-1-.8-1.3-1.4s-.5-1.2-.5-2v-1.4c0-.8.2-1.4.5-2s.8-1 1.3-1.4c.6-.3 1.3-.5 2.1-.5s1.6.2 2.1.5c.6.3 1 .8 1.3 1.4.3.6.5 1.2.5 2v1.4c0 .7-.2 1.4-.5 2-.3.6-.7 1-1.3 1.4-.5.4-1.2.5-2 .5zm0-1.3c.7 0 1.3-.2 1.7-.7.4-.4.6-1.1.7-2V669c0-.9-.3-1.5-.7-2-.4-.4-1-.7-1.7-.7s-1.3.2-1.7.7c-.4.4-.6 1.1-.7 2v1.2c0 .9.2 1.5.7 2 .4.5 1 .7 1.7.7zm14.4 1.3c-.7 0-1.3-.1-1.8-.2s-1-.4-1.4-.7-.7-.7-.9-1.1c-.2-.4-.3-.9-.3-1.5 0-.7.2-1.3.5-1.8s.8-.9 1.3-1.1c-.4-.3-.8-.6-1-1-.2-.4-.4-.9-.4-1.5 0-.7.2-1.3.5-1.7.3-.5.8-.8 1.4-1.1s1.3-.4 2.1-.4 1.5.1 2.1.4 1.1.6 1.4 1.1c.3.5.5 1 .5 1.7 0 .6-.1 1.1-.4 1.5-.2.4-.6.8-1 1 .6.3 1 .6 1.3 1.1.3.5.5 1.1.5 1.8s-.2 1.4-.6 1.9c-.4.5-.9 1-1.6 1.2-.5.3-1.3.4-2.2.4zm0-1.3c.5 0 1-.1 1.4-.3.4-.2.8-.4 1-.8s.4-.7.4-1.2-.1-.9-.4-1.2-.6-.6-1-.7c-.4-.2-.9-.3-1.4-.3-.5 0-1 .1-1.4.3s-.8.4-1 .7c-.2.3-.4.7-.4 1.2s.1.8.4 1.2c.2.3.6.6 1 .8s.9.3 1.4.3zm0-5.8c.4 0 .8-.1 1.2-.2.4-.2.7-.4.9-.6.2-.3.3-.6.3-1s-.1-.7-.3-1-.5-.5-.9-.7c-.4-.2-.8-.2-1.2-.2-.5 0-.9.1-1.2.2-.4.2-.7.4-.9.7s-.3.6-.3 1 .1.7.3 1c.2.3.5.5.9.6.3.1.8.2 1.2.2zm10.8 7.1c-.8 0-1.4-.1-2-.4-.5-.2-1-.6-1.3-1s-.6-.9-.7-1.5c-.2-.6-.2-1.1-.3-1.8v-3c0-.6.1-1.2.3-1.8.2-.6.4-1 .8-1.5.3-.4.8-.8 1.3-1 .5-.2 1.2-.4 2-.4s1.4.1 2 .4c.5.2 1 .6 1.3 1 .3.4.6.9.8 1.5.2.6.3 1.1.3 1.8v3c0 .6-.1 1.2-.3 1.8-.2.6-.4 1-.7 1.5s-.8.8-1.3 1c-.7.3-1.4.4-2.2.4zm0-1.4c.9 0 1.5-.3 2-.9.4-.6.6-1.4.7-2.4v-2.8c0-1-.2-1.8-.7-2.4-.4-.6-1.1-.9-2-.9-.9 0-1.5.3-1.9.9-.4.6-.6 1.4-.7 2.4v2.8c0 1 .2 1.8.7 2.4.4.6 1 .9 1.9.9zm11.2 1.3c-.1 0-.2 0-.3-.1-.1-.1-.1-.2-.1-.3v-8.1c0-.1 0-.2.1-.2s.2-.1.2-.1h.9c.2 0 .3.1.4.3l2.9 5.4 2.9-5.4c.1-.2.2-.3.4-.3h.8c.1 0 .2 0 .2.1.1.1.1.1.1.2v8.1c0 .1 0 .2-.1.3-.1.1-.2.1-.3.1h-.8c-.1 0-.2 0-.3-.1-.1-.1-.1-.2-.1-.3v-6.8l.6.1-2.8 5.2c-.1.1-.1.2-.2.3-.1.1-.2.1-.4.1h-.2c-.1 0-.3 0-.3-.1-.1-.1-.2-.2-.2-.3l-2.7-5 .5-.1v6.5c0 .1 0 .2-.1.3-.1.1-.2.1-.3.1h-.8zm-32.2-156.6c-.1 0-.2 0-.3-.1-.1-.1-.1-.1-.1-.2v-9.8c0-.1 0-.2.1-.2s.1-.1.3-.1h.8c.1 0 .2 0 .2.1s.1.1.1.2v8.9h5c.1 0 .2 0 .3.1.1.1.1.2.1.3v.6c0 .1 0 .2-.1.2-.1.1-.2.1-.3.1h-6.1zm8.9 0c-.1 0-.2 0-.2-.1-.1-.1-.1-.1-.1-.2v-8.8h-2.9c-.1 0-.2 0-.2-.1-.1-.1-.1-.1-.1-.2v-.6c0-.1 0-.2.1-.3.1-.1.1-.1.2-.1h7.2c.1 0 .2 0 .3.1.1.1.1.2.1.3v.6c0 .1 0 .2-.1.2-.1.1-.2.1-.3.1H604v8.8c0 .1 0 .2-.1.2-.1.1-.2.1-.3.1h-.8zm6.4 0c-.1 0-.2 0-.3-.1-.1-.1-.1-.1-.1-.2v-9.8c0-.1 0-.2.1-.3.1-.1.1-.1.3-.1h6.2c.1 0 .2 0 .3.1.1.1.1.2.1.3v.6c0 .1 0 .2-.1.3-.1.1-.1.1-.3.1h-5.1v3.3h4.8c.1 0 .2 0 .3.1.1.1.1.2.1.3v.6c0 .1 0 .2-.1.2-.1.1-.1.1-.3.1h-4.8v3.4h5.2c.1 0 .2 0 .3.1.1.1.1.1.1.3v.6c0 .1 0 .2-.1.2-.1.1-.1.1-.3.1h-6.3z"/><path class="st6" d="M625 599v42"/><path class="st4" d="M585 601.5V641"/><path d="M582 595h6v7h-6z"/><path d="M560 784v44m-118-44v44m118-44H442" stroke="#2f9b29" stroke-width="4" fill="none" stroke-linecap="round" stroke-miterlimit="10"/><path class="st9" d="M609.5 1001v6"/><path class="st11" d="M426.2 744.8h34.2v18.3h-34.2z"/><path d="M434.2 755.6c-.8 0-1.6-.2-2.2-.5-.6-.3-1.1-.8-1.4-1.4-.3-.6-.5-1.4-.5-2.4v-6.1c0-.1 0-.2.1-.3s.1-.1.3-.1h.8c.1 0 .2 0 .3.1s.1.2.1.3v6.1c0 1 .2 1.7.7 2.2s1.1.7 1.9.7c.8 0 1.4-.2 1.9-.7s.7-1.2.7-2.2v-6.1c0-.1 0-.2.1-.3s.1-.1.2-.1h.8c.1 0 .2 0 .2.1s.1.2.1.3v6.1c0 1-.2 1.8-.5 2.4-.3.6-.8 1.1-1.4 1.4s-1.4.5-2.2.5zm9.2-.1c-.1 0-.2 0-.2-.1-.1-.1-.1-.1-.1-.2v-8.8h-2.9c-.1 0-.2 0-.2-.1-.1-.1-.1-.1-.1-.2v-.6c0-.1 0-.2.1-.3.1-.1.1-.1.2-.1h7.2c.1 0 .2 0 .3.1s.1.2.1.3v.6c0 .1 0 .2-.1.2-.1.1-.2.1-.3.1h-2.9v8.8c0 .1 0 .2-.1.2-.1.1-.2.1-.3.1h-.7zm6.4 0c-.1 0-.2 0-.3-.1-.1-.1-.1-.1-.1-.2v-9.8c0-.1 0-.2.1-.3s.1-.1.3-.1h3.8c.7 0 1.4.1 1.9.4.5.2 1 .6 1.3 1.1.3.5.4 1.1.4 1.8s-.2 1.3-.4 1.8c-.3.5-.7.8-1.3 1.1s-1.2.4-1.9.4h-2.7v3.8c0 .1 0 .2-.1.2-.1.1-.2.1-.3.1h-.7zm1.1-5.4h2.6c.7 0 1.3-.2 1.7-.5.4-.3.6-.8.6-1.4 0-.6-.2-1.1-.5-1.4-.4-.3-.9-.5-1.7-.5H451v3.8z"/><path class="st14" d="M429.5 761.5h28l23.7 22.7"/><path d="M528 0h10v4h-10zm94 595h6v7h-6zm-20 229h6v7h-6zm0 109h6v7h-6zm-45-109h6v7h-6zm-118 0h6v7h-6z"/></svg>